<svg width="108" height="74" viewBox="0 0 108 74" fill="none" xmlns="http://www.w3.org/2000/svg">
<path d="M70.0533 48.3523L48.2496 10.4109L63.9134 1.40234L91.0261 48.3523H70.0533Z" fill="url(#paint0_linear_6760_10166)"/>
<path d="M11.9777 43.0365L27.6415 33.967L35.9293 48.3523H15.0173L11.9777 43.0365Z" fill="url(#paint1_linear_6760_10166)"/>
<path d="M42.7177 72.5577H47.1756V54.5001H42.7177V72.5577Z" fill="url(#paint2_linear_6760_10166)"/>
<path d="M98.5844 72.9838C93.5996 72.9838 90.6006 70.407 90.4385 66.7752H95.1396C95.1396 67.9114 95.8489 69.5752 98.8884 69.636C100.915 69.636 101.867 68.4389 101.867 67.5462C101.746 66.1259 99.9623 66.0042 98.0576 65.6999C96.1528 65.3955 94.5317 65.0506 93.3564 64.4419C91.8569 63.6709 90.8437 62.0072 90.8437 60.1C90.8437 56.8739 93.6401 54.3174 98.3007 54.3174C102.82 54.3174 105.677 56.6913 105.981 60.2217H101.442C101.401 59.2681 101.219 57.7667 98.5439 57.7667C96.7404 57.7667 95.5449 58.1319 95.4436 59.3898C95.4436 61.2362 99.1923 61.1144 102.11 61.8854C104.907 62.5956 106.69 64.3405 106.69 66.7752C106.69 71.2592 103.063 72.9838 98.5844 72.9838Z" fill="url(#paint3_linear_6760_10166)"/>
<path d="M30.3366 26.9266L46.0004 17.8775L63.5689 48.3523H47.1756V52.816H42.7177V48.332L30.3366 26.9266Z" fill="url(#paint4_linear_6760_10166)"/>
<path d="M30.7419 72.9838C25.5544 72.9838 21.3395 68.7433 21.3395 63.6101C21.3395 58.4159 25.5544 54.3174 30.7419 54.3174C32.7074 54.3174 34.4906 54.845 36.0509 55.9203V48.3523H40.5089V72.5577H36.0509V71.3606C34.4906 72.3751 32.7074 72.9838 30.7419 72.9838ZM25.6152 63.6101C25.6152 66.41 28.0063 68.7433 30.8634 68.7433C33.6598 68.7433 36.0509 66.41 36.0509 63.6101C36.0509 60.8101 33.6598 58.4159 30.8634 58.4159C28.0063 58.4159 25.6152 60.8101 25.6152 63.6101Z" fill="url(#paint5_linear_6760_10166)"/>
<path d="M63.6905 48.3523H68.0877V72.5577H63.6905V71.3606C62.191 72.3751 60.347 72.9838 58.3206 72.9838C53.1939 72.9838 48.9791 68.7433 48.9791 63.6101C48.9791 58.4159 53.1939 54.3174 58.3206 54.3174C60.347 54.3174 62.1302 54.845 63.6905 55.9203V48.3523ZM53.3155 63.6101C53.3155 66.41 55.7066 68.7433 58.4422 68.7433C61.2994 68.7433 63.6905 66.41 63.6905 63.6101C63.6905 60.8101 61.2994 58.4159 58.4422 58.4159C55.7066 58.4159 53.3155 60.8101 53.3155 63.6101Z" fill="url(#paint6_linear_6760_10166)"/>
<path d="M78.9287 72.9838C73.8223 72.9838 69.5872 68.7433 69.5872 63.61C69.5872 58.4159 73.8223 54.3174 78.9287 54.3174C80.8943 54.3174 82.7383 54.845 84.2378 55.9203V54.4798H88.6958V72.5577H84.2378V71.3606C82.7383 72.3751 80.9551 72.9838 78.9287 72.9838ZM73.9236 63.61C73.9236 66.41 76.3147 68.7433 79.1111 68.7433C81.9075 68.7433 84.2378 66.41 84.2378 63.61C84.2378 60.8101 81.9075 58.4159 79.1111 58.4159C76.3147 58.4159 73.9236 60.8101 73.9236 63.61Z" fill="url(#paint7_linear_6760_10166)"/>
<path d="M4.94628 63.61C4.94628 66.41 7.33738 68.7433 10.1338 68.7433C12.9909 68.7433 15.382 66.41 15.382 63.61C15.382 60.8101 12.9909 58.4159 10.1338 58.4159C7.33738 58.4159 4.94628 60.8101 4.94628 63.61ZM10.0122 72.9838C4.88548 72.9838 0.650391 68.7433 0.650391 63.61C0.650391 58.4159 4.88548 54.3174 10.0122 54.3174C11.9777 54.3174 13.8217 54.845 15.382 55.9203V54.4798H19.7792V72.5577H15.382V71.3606C13.8825 72.3751 12.0385 72.9838 10.0122 72.9838Z" fill="url(#paint8_linear_6760_10166)"/>
<defs>
<linearGradient id="paint0_linear_6760_10166" x1="0.650391" y1="37.1931" x2="106.69" y2="37.1931" gradientUnits="userSpaceOnUse">
<stop stop-color="#C7C7C7" stop-opacity="0.1"/>
<stop offset="0.681558" stop-color="#616161"/>
</linearGradient>
<linearGradient id="paint1_linear_6760_10166" x1="0.650391" y1="37.1931" x2="106.69" y2="37.1931" gradientUnits="userSpaceOnUse">
<stop stop-color="#C7C7C7" stop-opacity="0.1"/>
<stop offset="0.681558" stop-color="#616161"/>
</linearGradient>
<linearGradient id="paint2_linear_6760_10166" x1="0.650391" y1="37.1931" x2="106.69" y2="37.1931" gradientUnits="userSpaceOnUse">
<stop stop-color="#C7C7C7" stop-opacity="0.1"/>
<stop offset="0.681558" stop-color="#616161"/>
</linearGradient>
<linearGradient id="paint3_linear_6760_10166" x1="0.650391" y1="37.1931" x2="106.69" y2="37.1931" gradientUnits="userSpaceOnUse">
<stop stop-color="#C7C7C7" stop-opacity="0.1"/>
<stop offset="0.681558" stop-color="#616161"/>
</linearGradient>
<linearGradient id="paint4_linear_6760_10166" x1="0.650391" y1="37.1931" x2="106.69" y2="37.1931" gradientUnits="userSpaceOnUse">
<stop stop-color="#C7C7C7" stop-opacity="0.1"/>
<stop offset="0.681558" stop-color="#616161"/>
</linearGradient>
<linearGradient id="paint5_linear_6760_10166" x1="0.650391" y1="37.1931" x2="106.69" y2="37.1931" gradientUnits="userSpaceOnUse">
<stop stop-color="#C7C7C7" stop-opacity="0.1"/>
<stop offset="0.681558" stop-color="#616161"/>
</linearGradient>
<linearGradient id="paint6_linear_6760_10166" x1="0.650391" y1="37.1931" x2="106.69" y2="37.1931" gradientUnits="userSpaceOnUse">
<stop stop-color="#C7C7C7" stop-opacity="0.1"/>
<stop offset="0.681558" stop-color="#616161"/>
</linearGradient>
<linearGradient id="paint7_linear_6760_10166" x1="0.650391" y1="37.1931" x2="106.69" y2="37.1931" gradientUnits="userSpaceOnUse">
<stop stop-color="#C7C7C7" stop-opacity="0.1"/>
<stop offset="0.681558" stop-color="#616161"/>
</linearGradient>
<linearGradient id="paint8_linear_6760_10166" x1="0.650391" y1="37.1931" x2="106.69" y2="37.1931" gradientUnits="userSpaceOnUse">
<stop stop-color="#C7C7C7" stop-opacity="0.1"/>
<stop offset="0.681558" stop-color="#616161"/>
</linearGradient>
</defs>
</svg>
