<svg width="126" height="31" viewBox="0 0 126 31" fill="none" xmlns="http://www.w3.org/2000/svg">
<g clip-path="url(#clip0_6760_10175)">
<mask id="mask0_6760_10175" style="mask-type:luminance" maskUnits="userSpaceOnUse" x="0" y="0" width="126" height="31">
<path d="M125.431 30.9161V0H0V30.9161H125.431Z" fill="white"/>
</mask>
<g mask="url(#mask0_6760_10175)">
<path fill-rule="evenodd" clip-rule="evenodd" d="M72.8175 23.6831C73.5025 20.8899 72.6638 18.2909 70.534 15.0645C68.5006 11.9975 67.6231 10.4174 67.7216 7.98715C67.8495 4.7681 69.9258 2.18459 73.066 0.226429C71.5868 0.226429 63.1354 0.2391 63.1354 0.2391C59.4982 2.90966 58.1274 6.71277 58.1576 9.35349C58.1989 11.7678 58.9534 13.5486 60.5572 15.8484C61.8769 17.7306 63.1717 19.383 63.2277 21.6097C63.2837 24.4221 61.1715 26.7881 58.4245 28.6106L66.8322 30.9162C69.3973 29.359 72.0998 26.5335 72.8175 23.6831ZM78.5223 7.35405H83.8414V26.0913H91.6017V7.35405H96.9314V0.61185H78.5223V7.35405ZM22.9102 22.8902L17.5867 17.5679C16.5048 18.6351 15.051 19.2845 13.417 19.2845C10.1746 19.2845 7.53756 16.6597 7.53756 13.4018C7.53756 10.1628 10.1746 7.5253 13.417 7.5253C15.0571 7.5253 16.5596 8.19723 17.6341 9.2836L22.9593 3.96537C20.5196 1.5098 17.1502 0 13.417 0C6.00569 0 0 5.99629 0 13.4018C0 20.8164 6.00569 26.8172 13.417 26.8172C17.1212 26.8172 20.4816 25.32 22.9102 22.8902ZM110.452 15.8672L112.376 7.87271H112.459L114.341 15.8672H110.452ZM117.179 0.61185H107.818L99.7475 26.0913H108.033L109.097 21.9444H115.819L116.868 26.0913H125.431L117.179 0.61185ZM39.3112 19.2784C36.066 19.2784 33.422 16.6409 33.422 13.3986C33.422 10.1529 36.066 7.51917 39.3112 7.51917C42.5659 7.51917 45.2004 10.1529 45.2004 13.3986C45.2004 16.6409 42.5659 19.2784 39.3112 19.2784ZM39.3112 0C31.8996 0 25.8992 5.99629 25.8992 13.4018C25.8992 20.8164 31.8996 26.8172 39.3112 26.8172C46.7307 26.8172 52.7302 20.8164 52.7302 13.4018C52.7302 5.99629 46.7307 0 39.3112 0Z" fill="#616161"/>
</g>
</g>
<defs>
<clipPath id="clip0_6760_10175">
<rect width="125.476" height="31" fill="white"/>
</clipPath>
</defs>
</svg>
