<svg width="24" height="24" viewBox="0 0 24 24" fill="none" xmlns="http://www.w3.org/2000/svg">
<path d="M2.39844 18.0815L2.39866 6.25766C2.39867 5.58422 3.05086 5.10331 3.69422 5.30235L4.04229 5.41004C6.71428 6.23671 9.60308 6.23671 12.2751 5.41004C15.1959 4.50639 18.3673 4.59289 21.2259 5.65417L21.5987 5.79256L21.5984 18.575C21.5984 18.7676 21.4063 18.9012 21.2257 18.8342V18.8342C18.3671 17.7729 15.1957 17.6864 12.2748 18.59C9.60284 19.4167 6.71404 19.4167 4.04204 18.59L2.39844 18.0815Z" stroke="#8AB820" stroke-width="2" stroke-linejoin="round"/>
<path d="M14.3984 11.99C14.3984 13.3155 13.3239 14.39 11.9984 14.39C10.673 14.39 9.59844 13.3155 9.59844 11.99C9.59844 10.6646 10.673 9.59004 11.9984 9.59004C13.3239 9.59004 14.3984 10.6646 14.3984 11.99Z" stroke="#8AB820" stroke-width="2" stroke-linejoin="round"/>
</svg>
