<svg width="24" height="25" viewBox="0 0 24 25" fill="none" xmlns="http://www.w3.org/2000/svg">
<path d="M14.6471 8.3001V6.2001C14.6471 5.64314 14.424 5.109 14.0268 4.71517C13.6297 4.32135 13.091 4.1001 12.5294 4.1001H5.11765C4.55601 4.1001 4.01738 4.32135 3.62024 4.71517C3.22311 5.109 3 5.64314 3 6.2001V18.8001C3 19.3571 3.22311 19.8912 3.62024 20.285C4.01738 20.6788 4.55601 20.9001 5.11765 20.9001H12.5294C13.091 20.9001 13.6297 20.6788 14.0268 20.285C14.424 19.8912 14.6471 19.3571 14.6471 18.8001V16.7001M8.29412 12.5001H21M21 12.5001L17.8235 9.3501M21 12.5001L17.8235 15.6501" stroke="#8AB820" stroke-width="2" stroke-linecap="round" stroke-linejoin="round"/>
</svg>
