<svg width="174" height="43" viewBox="0 0 174 43" fill="none" xmlns="http://www.w3.org/2000/svg">
<path fill-rule="evenodd" clip-rule="evenodd" d="M28.2353 6.62012C29.2099 6.62012 30 7.4102 30 8.38482V34.8554C30 35.7195 29.3789 36.438 28.5589 36.59L27.5 36.6093V20.048H21.8779V36.6201H8.2531V20.048H2.5V36.6201L1.57212 36.6093C0.688117 36.5134 3.31565e-09 35.7649 0 34.8554V8.38482C0 7.4102 0.790086 6.62012 1.76471 6.62012H28.2353ZM5.0089 11.7294C4.52165 11.7295 4.12655 12.1245 4.12655 12.6118V16.706C4.12656 16.9942 4.26764 17.2643 4.50396 17.4294L8.2531 20.048H15.0655L10.02 12.137C9.8579 11.883 9.5772 11.7294 9.27591 11.7294H5.0089ZM20.8551 11.7294C20.5538 11.7294 20.2731 11.883 20.111 12.137L15.0655 20.048H21.8779L25.627 17.4294C25.8633 17.2643 26.0044 16.9942 26.0044 16.706V12.6118C26.0044 12.1245 25.6093 11.7295 25.1221 11.7294H20.8551Z" fill="#8AB820"/>
<path d="M41 30.6201V12.6201H53.6882V16.1944H44.6813V19.8715H52.7066V23.343H44.6813V30.6201H41Z" fill="white"/>
<path d="M55.9074 12.6201H59.466V30.6201H55.9074V12.6201Z" fill="white"/>
<path d="M97.7026 12.6201H104.206C105.81 12.6201 107.282 13.023 108.624 13.8287C109.965 14.6173 111.029 15.7058 111.814 17.0944C112.616 18.4658 113.017 19.9744 113.017 21.6201C113.017 23.283 112.624 24.8001 111.839 26.1715C111.07 27.543 110.006 28.6315 108.648 29.4373C107.307 30.2258 105.826 30.6201 104.206 30.6201H99.6415L97.7026 27.1744V12.6201ZM104.206 27.0201C105.237 27.0201 106.145 26.7887 106.93 26.3258C107.716 25.8458 108.321 25.1944 108.747 24.3715C109.188 23.5487 109.409 22.6315 109.409 21.6201C109.409 20.5915 109.188 19.6658 108.747 18.843C108.321 18.0201 107.708 17.3773 106.906 16.9144C106.121 16.4515 105.221 16.2201 104.206 16.2201H101.408V27.0201H104.206Z" fill="white"/>
<path d="M127.668 12.6201V16.1944H118.907V19.8715H126.686V23.3687H118.907V27.0458H127.668V30.6201H117.238L115.225 27.0201V12.6201H127.668Z" fill="white"/>
<path d="M136.047 12.6201H139.827L146.6 30.6201H142.796L141.545 27.1487H134.477L133.274 30.6201H129.47L136.047 12.6201ZM141.545 27.1487L137.912 17.1201L134.477 27.1487H141.545ZM147.607 26.1201V12.6201H151.288V27.0458H159.289V30.6201H149.3L147.607 26.1201Z" fill="white"/>
<path d="M161.14 27.0458L169.705 16.2201H161.14V12.6201H174V16.2201L165.705 27.0458H173.755V30.6201H163.128L161.14 27.0458Z" fill="white"/>
<path d="M83.6263 30.6201H80.0677L80.0962 16.3824L83.6263 21.7988V30.6201Z" fill="white"/>
<path d="M80.0677 12.6201H83.6753L91.5042 24.7315V12.6201H95.0628V30.6201H91.4797L83.6263 18.483L80.0677 12.6201Z" fill="white"/>
<path d="M65.7509 30.6201H62.1923L62.2208 16.3824L65.7509 21.7988V30.6201Z" fill="white"/>
<path d="M62.1923 12.6201H65.8L73.6289 24.7315V12.6201H77.1875V30.6201H73.6044L65.7509 18.483L62.1923 12.6201Z" fill="white"/>
</svg>
