<svg width="175" height="42" viewBox="0 0 175 42" fill="none" xmlns="http://www.w3.org/2000/svg">
<path fill-rule="evenodd" clip-rule="evenodd" d="M28.7353 6C29.7099 6 30.5 6.79009 30.5 7.76471V34.2353C30.5 35.0994 29.8789 35.8178 29.0589 35.9698L28 35.9892V19.4279H22.3779V36H8.7531V19.4279H3V36L2.07212 35.9892C1.18812 35.8933 0.5 35.1448 0.5 34.2353V7.76471C0.5 6.79009 1.29009 6 2.26471 6H28.7353ZM5.5089 11.1093C5.02165 11.1093 4.62655 11.5044 4.62655 11.9916V16.0859C4.62656 16.3741 4.76764 16.6442 5.00396 16.8093L8.7531 19.4279H15.5655L10.52 11.5169C10.3579 11.2629 10.0772 11.1093 9.77591 11.1093H5.5089ZM21.3551 11.1093C21.0538 11.1093 20.7731 11.2629 20.611 11.5169L15.5655 19.4279H22.3779L26.127 16.8093C26.3633 16.6442 26.5044 16.3741 26.5044 16.0859V11.9916C26.5044 11.5044 26.1093 11.1093 25.6221 11.1093H21.3551Z" fill="#8AB820"/>
<path d="M41.5 30V12H54.1882V15.5743H45.1813V19.2514H53.2066V22.7229H45.1813V30H41.5Z" fill="white"/>
<path d="M56.4074 12H59.966V30H56.4074V12Z" fill="white"/>
<path d="M98.2026 12H104.706C106.31 12 107.782 12.4029 109.124 13.2086C110.465 13.9971 111.529 15.0857 112.314 16.4743C113.116 17.8457 113.517 19.3543 113.517 21C113.517 22.6629 113.124 24.18 112.339 25.5514C111.57 26.9229 110.506 28.0114 109.148 28.8171C107.807 29.6057 106.326 30 104.706 30H100.141L98.2026 26.5543V12ZM104.706 26.4C105.737 26.4 106.645 26.1686 107.43 25.7057C108.216 25.2257 108.821 24.5743 109.247 23.7514C109.688 22.9286 109.909 22.0114 109.909 21C109.909 19.9714 109.688 19.0457 109.247 18.2229C108.821 17.4 108.208 16.7571 107.406 16.2943C106.621 15.8314 105.721 15.6 104.706 15.6H101.908V26.4H104.706Z" fill="white"/>
<path d="M128.168 12V15.5743H119.407V19.2514H127.186V22.7486H119.407V26.4257H128.168V30H117.738L115.725 26.4V12H128.168Z" fill="white"/>
<path d="M136.547 12H140.327L147.1 30H143.296L142.045 26.5286H134.977L133.774 30H129.97L136.547 12ZM142.045 26.5286L138.412 16.5L134.977 26.5286H142.045ZM148.107 25.5V12H151.788V26.4257H159.789V30H149.8L148.107 25.5Z" fill="white"/>
<path d="M161.64 26.4257L170.205 15.6H161.64V12H174.5V15.6L166.205 26.4257H174.255V30H163.628L161.64 26.4257Z" fill="white"/>
<path d="M84.1263 30H80.5677L80.5962 15.7623L84.1263 21.1787V30Z" fill="white"/>
<path d="M80.5677 12H84.1753L92.0042 24.1114V12H95.5628V30H91.9797L84.1263 17.8629L80.5677 12Z" fill="white"/>
<path d="M66.2509 30H62.6923L62.7208 15.7623L66.2509 21.1787V30Z" fill="white"/>
<path d="M62.6923 12H66.3L74.1289 24.1114V12H77.6875V30H74.1044L66.2509 17.8629L62.6923 12Z" fill="white"/>
</svg>
