<svg width="174" height="42" viewBox="0 0 174 42" fill="none" xmlns="http://www.w3.org/2000/svg">
<path fill-rule="evenodd" clip-rule="evenodd" d="M28.2353 6C29.2099 6 30 6.79009 30 7.76471V34.2353C30 35.0994 29.3789 35.8178 28.5589 35.9698L27.5 35.9892V19.4279H21.8779V36H8.2531V19.4279H2.5V36L1.57212 35.9892C0.688117 35.8933 3.31565e-09 35.1448 0 34.2353V7.76471C0 6.79009 0.790086 6 1.76471 6H28.2353ZM5.0089 11.1093C4.52165 11.1093 4.12655 11.5044 4.12655 11.9916V16.0859C4.12656 16.3741 4.26764 16.6442 4.50396 16.8093L8.2531 19.4279H15.0655L10.02 11.5169C9.8579 11.2629 9.5772 11.1093 9.27591 11.1093H5.0089ZM20.8551 11.1093C20.5538 11.1093 20.2731 11.2629 20.111 11.5169L15.0655 19.4279H21.8779L25.627 16.8093C25.8633 16.6442 26.0044 16.3741 26.0044 16.0859V11.9916C26.0044 11.5044 25.6093 11.1093 25.1221 11.1093H20.8551Z" fill="#8AB820"/>
<path d="M41 30V12H53.6882V15.5743H44.6813V19.2514H52.7066V22.7229H44.6813V30H41Z" fill="#242323"/>
<path d="M55.9074 12H59.466V30H55.9074V12Z" fill="#242323"/>
<path d="M97.7026 12H104.206C105.81 12 107.282 12.4029 108.624 13.2086C109.965 13.9971 111.029 15.0857 111.814 16.4743C112.616 17.8457 113.017 19.3543 113.017 21C113.017 22.6629 112.624 24.18 111.839 25.5514C111.07 26.9229 110.006 28.0114 108.648 28.8171C107.307 29.6057 105.826 30 104.206 30H99.6415L97.7026 26.5543V12ZM104.206 26.4C105.237 26.4 106.145 26.1686 106.93 25.7057C107.716 25.2257 108.321 24.5743 108.747 23.7514C109.188 22.9286 109.409 22.0114 109.409 21C109.409 19.9714 109.188 19.0457 108.747 18.2229C108.321 17.4 107.708 16.7571 106.906 16.2943C106.121 15.8314 105.221 15.6 104.206 15.6H101.408V26.4H104.206Z" fill="#242323"/>
<path d="M127.668 12V15.5743H118.907V19.2514H126.686V22.7486H118.907V26.4257H127.668V30H117.238L115.225 26.4V12H127.668Z" fill="#242323"/>
<path d="M136.047 12H139.827L146.6 30H142.796L141.545 26.5286H134.477L133.274 30H129.47L136.047 12ZM141.545 26.5286L137.912 16.5L134.477 26.5286H141.545ZM147.607 25.5V12H151.288V26.4257H159.289V30H149.3L147.607 25.5Z" fill="#242323"/>
<path d="M161.14 26.4257L169.705 15.6H161.14V12H174V15.6L165.705 26.4257H173.755V30H163.128L161.14 26.4257Z" fill="#242323"/>
<path d="M83.6263 30H80.0677L80.0962 15.7623L83.6263 21.1787V30Z" fill="#242323"/>
<path d="M80.0677 12H83.6753L91.5042 24.1114V12H95.0628V30H91.4797L83.6263 17.8629L80.0677 12Z" fill="#242323"/>
<path d="M65.7509 30H62.1923L62.2208 15.7623L65.7509 21.1787V30Z" fill="#242323"/>
<path d="M62.1923 12H65.8L73.6289 24.1114V12H77.1875V30H73.6044L65.7509 17.8629L62.1923 12Z" fill="#242323"/>
</svg>
