<svg width="60" height="61" viewBox="0 0 60 61" fill="none" xmlns="http://www.w3.org/2000/svg">
<circle cx="30" cy="30.1201" r="30" fill="#8AB820"/>
<g clip-path="url(#clip0_6749_1069)">
<path d="M30.8682 21.1599C29.334 22.3761 27.8616 23.9808 26.4917 25.93C25.1493 27.8402 23.8668 30.1371 22.6793 32.757C22.5973 32.9378 22.6358 33.1502 22.7762 33.2909L26.8296 37.344C26.9211 37.4355 27.0432 37.484 27.1667 37.484C27.2335 37.484 27.3006 37.4699 27.3635 37.4413C29.9834 36.2537 32.2804 34.9708 34.1906 33.6284C36.1397 32.259 37.7445 30.7866 38.9602 29.2524C40.0456 27.8829 40.8483 26.4299 41.3525 24.9247L35.1958 18.7681C33.6906 19.2722 32.2376 20.0746 30.8682 21.1599ZM36.8124 27.6438C35.615 28.8413 33.6738 28.8413 32.4768 27.6438C31.2793 26.4467 31.2793 24.5056 32.4768 23.3081C33.6738 22.111 35.615 22.111 36.8124 23.3081C38.0095 24.5056 38.0095 26.4467 36.8124 27.6438Z" fill="white"/>
<path d="M41.8239 18.6925C41.7919 18.4881 41.6317 18.3279 41.4273 18.2959C39.6357 18.0133 37.8937 18.0713 36.2431 18.4675L41.6527 23.8771C42.0485 22.2262 42.1065 20.4845 41.8243 18.6929L41.8239 18.6925Z" fill="white"/>
<path d="M19.0426 34.6039C19.2863 33.7142 19.7615 32.8974 20.4167 32.2422C20.9975 31.6618 21.7019 31.2282 22.4672 30.9662C23.1529 29.5601 23.8672 28.2562 24.6036 27.0649C22.8494 26.9852 21.1123 27.6377 19.8465 28.9038C18.365 30.3854 17.7174 32.503 18.1148 34.5681C18.1564 34.7858 18.3429 34.946 18.5644 34.9544C18.5705 34.9548 18.5766 34.9548 18.5831 34.9548C18.7967 34.9548 18.9854 34.8118 19.0426 34.6039Z" fill="white"/>
<path d="M25.5295 38.6245C25.5372 38.4892 25.4868 38.3564 25.3907 38.2603L21.8597 34.7294C21.7636 34.6333 21.6309 34.5829 21.4951 34.5905C21.3594 34.5985 21.2335 34.6638 21.1493 34.7705C19.6227 36.6968 18.8283 38.7016 18.72 40.9001C18.7135 41.0347 18.7642 41.1655 18.8592 41.2609C18.9488 41.3505 19.0701 41.4004 19.1963 41.4004C19.2039 41.4004 19.212 41.4001 19.2196 41.3997C21.4181 41.2918 23.4233 40.4974 25.3495 38.9708C25.4563 38.8865 25.5215 38.7603 25.5295 38.6245Z" fill="white"/>
<path d="M29.154 37.6525C28.8916 38.4179 28.458 39.1222 27.8772 39.703C27.222 40.3582 26.4056 40.8338 25.5155 41.0775C25.3019 41.1362 25.1566 41.3341 25.1654 41.5557C25.1738 41.7772 25.3339 41.9634 25.5517 42.0053C25.9521 42.0823 26.3545 42.1201 26.7541 42.1201C27.584 42.1201 28.4008 41.9572 29.1597 41.6445C29.9182 41.3326 30.6188 40.8708 31.216 40.2736C32.4817 39.0078 33.1346 37.2707 33.0545 35.5161C31.8636 36.2529 30.5597 36.9668 29.154 37.6525Z" fill="white"/>
</g>
<defs>
<clipPath id="clip0_6749_1069">
<rect width="24" height="24" fill="white" transform="translate(18 18.1201)"/>
</clipPath>
</defs>
</svg>
