<svg width="60" height="61" viewBox="0 0 60 61" fill="none" xmlns="http://www.w3.org/2000/svg">
<circle cx="30" cy="30.1201" r="30" fill="#8AB820"/>
<g clip-path="url(#clip0_6749_1085)">
<path d="M30.0003 28.0933C28.8827 28.0933 27.9735 29.0025 27.9735 30.1202C27.9735 31.2378 28.8827 32.147 30.0003 32.147C31.118 32.147 32.0272 31.2378 32.0272 30.1202C32.0272 29.0025 31.118 28.0933 30.0003 28.0933Z" fill="white"/>
<path d="M39.6211 29.8235C39.5854 29.7681 38.7277 28.4602 37.1205 27.1444C34.9807 25.3933 32.5185 24.4676 30 24.4676C27.4815 24.4676 25.0193 25.3933 22.8795 27.1444C21.2724 28.4602 20.4147 29.7681 20.3789 29.8235C20.2616 30.0041 20.2616 30.2366 20.3789 30.4172C20.4147 30.4722 21.2724 31.7805 22.8795 33.0958C25.0193 34.8473 27.4815 35.7731 30 35.7731C32.5185 35.7731 34.9807 34.8473 37.1205 33.0958C38.7277 31.7805 39.5854 30.4722 39.6211 30.4172C39.7385 30.2366 39.7385 30.0041 39.6211 29.8235ZM30 33.2376C28.2812 33.2376 26.8826 31.839 26.8826 30.1201C26.8826 28.4013 28.2812 27.0027 30 27.0027C31.7189 27.0027 33.1175 28.4013 33.1175 30.1201C33.1175 31.839 31.7189 33.2376 30 33.2376Z" fill="white"/>
<path d="M30.0004 23.5296C30.3014 23.5296 30.5457 23.2853 30.5457 22.9843V20.961C30.5457 20.66 30.3014 20.4156 30.0004 20.4156C29.6994 20.4156 29.4551 20.66 29.4551 20.961V22.9843C29.4551 23.2853 29.6994 23.5296 30.0004 23.5296Z" fill="white"/>
<path d="M25.9599 24.2133C26.0606 24.3882 26.2443 24.4859 26.4328 24.4859C26.5253 24.4859 26.619 24.4624 26.705 24.4126C26.9659 24.2621 27.0553 23.9284 26.9048 23.6675L25.8931 21.9151C25.7426 21.6542 25.4089 21.5648 25.148 21.7153C24.8871 21.8658 24.7977 22.1995 24.9482 22.4604L25.9599 24.2128V24.2133Z" fill="white"/>
<path d="M33.2953 24.4126C33.3813 24.4623 33.4751 24.4859 33.5676 24.4859C33.756 24.4859 33.9392 24.3881 34.0405 24.2132L35.0521 22.4608C35.2026 22.1999 35.1132 21.8666 34.8523 21.7157C34.5914 21.5651 34.2581 21.6546 34.1072 21.9155L33.0955 23.6679C32.945 23.9288 33.0345 24.2621 33.2953 24.413V24.4126Z" fill="white"/>
<path d="M30.0004 36.7106C29.6994 36.7106 29.4551 36.9549 29.4551 37.2559V39.2792C29.4551 39.5802 29.6994 39.8245 30.0004 39.8245C30.3014 39.8245 30.5457 39.5802 30.5457 39.2792V37.2559C30.5457 36.9549 30.3014 36.7106 30.0004 36.7106Z" fill="white"/>
<path d="M26.705 35.8276C26.4441 35.6771 26.1108 35.7665 25.9599 36.0274L24.9482 37.7798C24.7977 38.0407 24.8871 38.374 25.148 38.5249C25.2339 38.5747 25.3277 38.5982 25.4202 38.5982C25.6087 38.5982 25.7919 38.5005 25.8931 38.3256L26.9048 36.5731C27.0553 36.3123 26.9659 35.979 26.705 35.828V35.8276Z" fill="white"/>
<path d="M34.0405 36.027C33.89 35.7662 33.5562 35.6767 33.2953 35.8272C33.0345 35.9777 32.945 36.3115 33.0955 36.5723L34.1072 38.3248C34.2084 38.4997 34.3916 38.5974 34.5801 38.5974C34.6726 38.5974 34.7664 38.5739 34.8523 38.5241C35.1132 38.3736 35.2026 38.0399 35.0521 37.779L34.0405 36.0266V36.027Z" fill="white"/>
<path d="M18.5453 23.6723C18.8463 23.6723 19.0906 23.428 19.0906 23.127V21.2254C19.0906 20.1147 19.9945 19.2107 21.1052 19.2107H23.0069C23.3079 19.2107 23.5522 18.9664 23.5522 18.6654C23.5522 18.3644 23.3079 18.1201 23.0069 18.1201H21.1052C19.393 18.1201 18 19.5131 18 21.2254V23.127C18 23.428 18.2443 23.6723 18.5453 23.6723Z" fill="white"/>
<path d="M23.0069 41.0295H21.1052C19.9945 41.0295 19.0906 40.1256 19.0906 39.0149V37.1132C19.0906 36.8122 18.8463 36.5679 18.5453 36.5679C18.2443 36.5679 18 36.8122 18 37.1132V39.0149C18 40.7272 19.393 42.1201 21.1052 42.1201H23.0069C23.3079 42.1201 23.5522 41.8758 23.5522 41.5748C23.5522 41.2738 23.3079 41.0295 23.0069 41.0295Z" fill="white"/>
<path d="M38.8952 18.1201H36.9936C36.6925 18.1201 36.4482 18.3644 36.4482 18.6654C36.4482 18.9664 36.6925 19.2107 36.9936 19.2107H38.8952C40.0059 19.2107 40.9098 20.1147 40.9098 21.2254V23.127C40.9098 23.428 41.1541 23.6723 41.4551 23.6723C41.7561 23.6723 42.0004 23.428 42.0004 23.127V21.2254C42.0004 19.5131 40.6075 18.1201 38.8952 18.1201Z" fill="white"/>
<path d="M41.4551 36.568C41.1541 36.568 40.9098 36.8123 40.9098 37.1133V39.0149C40.9098 40.1256 40.0059 41.0295 38.8952 41.0295H36.9936C36.6925 41.0295 36.4482 41.2739 36.4482 41.5749C36.4482 41.8759 36.6925 42.1202 36.9936 42.1202H38.8952C40.6075 42.1202 42.0004 40.7272 42.0004 39.0149V37.1133C42.0004 36.8123 41.7561 36.568 41.4551 36.568Z" fill="white"/>
</g>
<defs>
<clipPath id="clip0_6749_1085">
<rect width="24" height="24" fill="white" transform="translate(18 18.1201)"/>
</clipPath>
</defs>
</svg>
