<svg width="56" height="57" viewBox="0 0 56 57" fill="none" xmlns="http://www.w3.org/2000/svg">
<rect y="0.810059" width="56" height="56" rx="28" fill="#F6E2FF"/>
<path d="M22.0004 22.8102V27.0102M34.0004 22.8102V27.0102M33.4004 31.2102H35.8004C36.7945 31.2102 37.6004 30.4043 37.6004 29.4102V21.0102C37.6004 20.0161 36.7945 19.2102 35.8004 19.2102H20.2004C19.2063 19.2102 18.4004 20.0161 18.4004 21.0102V29.4102C18.4004 30.4043 19.2063 31.2102 20.2004 31.2102H22.6004M24.6053 35.0159L27.9994 38.41M27.9994 38.41L31.1649 35.2445M27.9994 38.41L27.9996 31.4677M30.4004 25.2102C30.4004 26.5357 29.3259 27.6102 28.0004 27.6102C26.6749 27.6102 25.6004 26.5357 25.6004 25.2102C25.6004 23.8847 26.6749 22.8102 28.0004 22.8102C29.3259 22.8102 30.4004 23.8847 30.4004 25.2102Z" stroke="#AA16EF" stroke-width="1.5" stroke-linecap="round" stroke-linejoin="round"/>
</svg>
