<svg width="56" height="57" viewBox="0 0 56 57" fill="none" xmlns="http://www.w3.org/2000/svg">
<rect y="0.810059" width="56" height="56" rx="28" fill="#E1E9FE"/>
<path d="M23.8078 36.5595C23.4145 36.6895 23.2011 37.1136 23.331 37.5069C23.461 37.9002 23.8852 38.1137 24.2785 37.9837L23.8078 36.5595ZM29.8622 37.6562L29.7947 36.9093H29.7947L29.8622 37.6562ZM33.3536 36.887L33.6802 37.5621L33.3536 36.887ZM36.6897 33.8781L36.1089 33.4036V33.4036L36.6897 33.8781ZM34.408 31.9955L34.936 32.5281L34.408 31.9955ZM32.8715 33.5188L33.3996 34.0514L32.8715 33.5188ZM28.6984 33.4447C28.2842 33.4447 27.9484 33.7805 27.9484 34.1947C27.9484 34.6089 28.2842 34.9447 28.6984 34.9447V33.4447ZM36.335 31.8063L35.9214 32.432L36.335 31.8063ZM25.224 31.3016L25.5571 31.9736H25.5571L25.224 31.3016ZM29.4001 30.9229L29.5958 30.1989V30.1989L29.4001 30.9229ZM31.0309 31.3638L30.8351 32.0878H30.8351L31.0309 31.3638ZM31.5476 33.2929L31.0196 32.7603L31.0196 32.7603L31.5476 33.2929ZM30.11 33.6621C29.8159 33.9537 29.8138 34.4286 30.1055 34.7227C30.3971 35.0169 30.872 35.0189 31.1661 34.7273L30.11 33.6621ZM24.0432 37.2716L24.2785 37.9837C24.4244 37.9355 24.6903 37.912 25.1177 37.9422C25.5298 37.9713 26.0083 38.0427 26.5463 38.1264C27.5786 38.2872 28.8472 38.5009 29.9297 38.4032L29.8622 37.6562L29.7947 36.9093C28.9375 36.9867 27.8785 36.8158 26.7771 36.6443C26.2483 36.562 25.7085 36.4802 25.2235 36.4459C24.7538 36.4127 24.2438 36.4154 23.8078 36.5595L24.0432 37.2716ZM29.8622 37.6562L29.9297 38.4032C31.4406 38.2667 32.1472 38.3038 33.6802 37.5621L33.3536 36.887L33.027 36.2119C31.783 36.8137 31.361 36.7678 29.7947 36.9093L29.8622 37.6562ZM33.3536 36.887L33.6802 37.5621C35.0548 36.8971 36.4335 35.3772 37.2706 34.3526L36.6897 33.8781L36.1089 33.4036C35.2646 34.4372 34.0697 35.7073 33.027 36.2119L33.3536 36.887ZM34.408 31.9955L33.88 31.4629L32.3435 32.9862L32.8715 33.5188L33.3996 34.0514L34.936 32.5281L34.408 31.9955ZM31.2257 34.1947V33.4447H28.6984V34.1947V34.9447H31.2257V34.1947ZM32.8715 33.5188L32.3435 32.9862C32.0481 33.279 31.6461 33.4447 31.2257 33.4447V34.1947V34.9447C32.0398 34.9447 32.8219 34.6241 33.3996 34.0514L32.8715 33.5188ZM36.335 31.8063L36.7485 31.1806C35.8472 30.5849 34.6475 30.7018 33.88 31.4629L34.408 31.9955L34.936 32.5281C35.198 32.2684 35.6113 32.227 35.9214 32.432L36.335 31.8063ZM36.6897 33.8781L37.2706 34.3526C38.1102 33.3248 37.7952 31.8724 36.7485 31.1806L36.335 31.8063L35.9214 32.432C36.2902 32.6757 36.3399 33.1209 36.1089 33.4036L36.6897 33.8781ZM19.7759 30.3485V31.0985H22.8794V30.3485V29.5985H19.7759V30.3485ZM23.6552 31.1178H22.9052V38.0408H23.6552H24.4052V31.1178H23.6552ZM22.8794 38.8101V38.0601H19.7759V38.8101V39.5601H22.8794V38.8101ZM19 38.0408H19.75V31.1178H19H18.25V38.0408H19ZM19.7759 38.8101V38.0601C19.77 38.0601 19.7664 38.059 19.7639 38.058C19.7609 38.0567 19.7579 38.0547 19.7553 38.0522C19.7527 38.0496 19.7514 38.0473 19.7508 38.0459C19.7505 38.0451 19.75 38.0439 19.75 38.0408H19H18.25C18.25 38.8859 18.9392 39.5601 19.7759 39.5601V38.8101ZM23.6552 38.0408H22.9052C22.9052 38.0439 22.9047 38.0451 22.9044 38.0459C22.9038 38.0473 22.9025 38.0496 22.8999 38.0522C22.8973 38.0547 22.8943 38.0567 22.8913 38.058C22.8888 38.059 22.8852 38.0601 22.8794 38.0601V38.8101V39.5601C23.716 39.5601 24.4052 38.8859 24.4052 38.0408H23.6552ZM22.8794 30.3485V31.0985C22.8852 31.0985 22.8888 31.0996 22.8913 31.1006C22.8943 31.1019 22.8973 31.1038 22.8999 31.1064C22.9025 31.109 22.9038 31.1113 22.9044 31.1126C22.9047 31.1134 22.9052 31.1146 22.9052 31.1178H23.6552H24.4052C24.4052 30.2726 23.716 29.5985 22.8794 29.5985V30.3485ZM19.7759 30.3485V29.5985C18.9392 29.5985 18.25 30.2726 18.25 31.1178H19H19.75C19.75 31.1146 19.7505 31.1134 19.7508 31.1126C19.7514 31.1113 19.7527 31.109 19.7553 31.1064C19.7579 31.1038 19.7609 31.1019 19.7639 31.1006C19.7664 31.0996 19.77 31.0985 19.7759 31.0985V30.3485ZM24.0432 31.887L24.3763 32.5589L25.5571 31.9736L25.224 31.3016L24.8909 30.6296L23.7101 31.215L24.0432 31.887ZM27.6529 30.7331V31.4831H27.9711V30.7331V29.9831H27.6529V30.7331ZM29.4001 30.9229L29.2043 31.6469L30.8351 32.0878L31.0309 31.3638L31.2267 30.6398L29.5958 30.1989L29.4001 30.9229ZM31.5476 33.2929L31.0196 32.7603L30.11 33.6621L30.6381 34.1947L31.1661 34.7273L32.0756 33.8255L31.5476 33.2929ZM31.0309 31.3638L30.8351 32.0878C31.1454 32.1717 31.2364 32.5453 31.0196 32.7603L31.5476 33.2929L32.0756 33.8255C33.1225 32.7876 32.6406 31.0221 31.2267 30.6398L31.0309 31.3638ZM27.9711 30.7331V31.4831C28.3877 31.4831 28.8025 31.5382 29.2043 31.6469L29.4001 30.9229L29.5958 30.1989C29.0663 30.0557 28.5199 29.9831 27.9711 29.9831V30.7331ZM25.224 31.3016L25.5571 31.9736C26.2075 31.6511 26.9251 31.4831 27.6529 31.4831V30.7331V29.9831C26.6944 29.9831 25.7488 30.2044 24.8909 30.6296L25.224 31.3016ZM33.7415 24.9639H32.9915C32.9915 26.243 31.9439 27.2908 30.6381 27.2908V28.0408V28.7908C32.7602 28.7908 34.4915 27.0835 34.4915 24.9639H33.7415ZM30.6381 28.0408V27.2908C29.3322 27.2908 28.2846 26.243 28.2846 24.9639H27.5346H26.7846C26.7846 27.0835 28.5159 28.7908 30.6381 28.7908V28.0408ZM27.5346 24.9639H28.2846C28.2846 23.6848 29.3322 22.637 30.6381 22.637V21.887V21.137C28.5159 21.137 26.7846 22.8443 26.7846 24.9639H27.5346ZM30.6381 21.887V22.637C31.9439 22.637 32.9915 23.6848 32.9915 24.9639H33.7415H34.4915C34.4915 22.8443 32.7602 21.137 30.6381 21.137V21.887ZM27.5346 24.9639V24.2139C26.2287 24.2139 25.1811 23.166 25.1811 21.887H24.4311H23.6811C23.6811 24.0066 25.4124 25.7139 27.5346 25.7139V24.9639ZM24.4311 21.887H25.1811C25.1811 20.6079 26.2287 19.5601 27.5346 19.5601V18.8101V18.0601C25.4124 18.0601 23.6811 19.7674 23.6811 21.887H24.4311ZM27.5346 18.8101V19.5601C28.8405 19.5601 29.8881 20.6079 29.8881 21.887H30.6381H31.3881C31.3881 19.7674 29.6567 18.0601 27.5346 18.0601V18.8101Z" fill="#0066FF"/>
</svg>
