<svg width="122" height="49" viewBox="0 0 122 49" fill="none" xmlns="http://www.w3.org/2000/svg">
<g clip-path="url(#clip0_6760_10170)">
<path fill-rule="evenodd" clip-rule="evenodd" d="M121.983 49H0V0H122V49H121.983Z" fill="#616161"/>
<path fill-rule="evenodd" clip-rule="evenodd" d="M2.43945 24.5C2.43945 36.5448 26.9813 46.55 61.0082 46.55C95.035 46.55 119.559 36.5448 119.559 24.5C119.559 12.4551 95.0176 2.44995 61.0082 2.44995C26.9988 2.44995 2.43945 12.4551 2.43945 24.5Z" fill="#242323"/>
<path d="M56.6658 31.8557C57.0505 32.4041 57.4701 32.9182 57.9597 33.3811H44.7579C44.7579 32.8668 44.2508 31.8214 43.6912 30.9988C43.1317 30.1761 40.1066 25.6688 40.1066 25.6688V31.8557C40.1066 32.3698 40.1066 32.8668 40.3689 33.3811H29.3704C29.6327 32.8668 29.6327 32.3698 29.6327 31.8557V17.1509C29.6327 16.6368 29.6327 16.1398 29.3704 15.6257H40.3689C40.1066 16.1398 40.1066 16.6368 40.1066 17.1509V23.5779C40.1066 23.5779 43.6213 19.0876 44.4256 18.0421C45.0376 17.2538 45.7896 16.1397 45.7896 15.6257H57.2603C56.4734 16.1398 55.5991 17.0653 54.8821 17.9222C54.2526 18.6763 50.6856 22.9437 50.6856 22.9437C50.6856 22.9437 55.9664 30.8446 56.6658 31.8557ZM60.1279 17.1509V31.8557C60.1279 32.3698 60.1279 32.8668 59.8656 33.3811H81.0935V28.4452C80.5689 28.7022 80.0617 28.7022 79.5372 28.7022H70.602V26.3714H79.1875V22.6351H70.602V20.2873H79.5372C80.0618 20.2873 80.5689 20.2873 81.0935 20.5272V15.6085H59.8656C60.1279 16.1398 60.1279 16.6368 60.1279 17.1509ZM110.505 31.8557C110.679 32.4213 110.977 32.9354 111.361 33.3811H99.8557C99.9082 32.8668 99.7159 32.3698 99.5061 31.8557C99.5061 31.8557 99.3311 31.4443 99.0864 30.8446L98.9815 30.5874H92.3543L92.2494 30.8616C92.2494 30.8616 92.057 31.3587 91.8822 31.8728C91.7074 32.387 91.515 32.8839 91.585 33.3981H82.5098C82.8805 32.9486 83.1598 32.4304 83.3317 31.8728L88.7697 17.1681C88.9621 16.6539 89.1544 16.1569 89.0845 15.6428H104.42C104.28 16.1569 104.559 16.6539 104.752 17.1681C105.206 18.2821 110.12 30.8616 110.505 31.8557ZM97.5302 26.8342L95.9215 22.7209C95.7816 22.3439 95.6592 21.9497 95.5717 21.5555C95.5017 21.9526 95.3964 22.3427 95.257 22.7209C95.2045 22.8924 94.5225 24.6919 93.7356 26.8342H97.5302ZM24.1595 15.6257H12.1992C12.4615 16.1398 12.4615 16.6368 12.4615 17.1509V31.8557C12.4615 32.3698 12.4615 32.8668 12.1992 33.3811H24.1595C23.8972 32.8668 23.8972 32.3698 23.8972 31.8557V17.1509C23.8972 16.6368 23.8972 16.1398 24.1595 15.6257ZM106.833 17.031C106.78 15.7799 107.777 14.7345 109.053 14.7002H109.211C110.505 14.683 111.571 15.677 111.589 16.9452V17.031C111.624 18.3164 110.592 19.3961 109.263 19.4304C107.952 19.4647 106.85 18.4534 106.815 17.1509C106.833 17.1166 106.833 17.0653 106.833 17.031ZM107.305 17.031C107.305 18.0592 108.162 18.8991 109.211 18.8991C110.26 18.8991 111.117 18.0592 111.117 17.031C111.117 16.0027 110.26 15.1629 109.211 15.1629C108.197 15.1286 107.34 15.8998 107.305 16.8938V17.031ZM108.739 18.4191H108.319V15.6085H109.386C109.893 15.6257 110.277 16.0197 110.277 16.5168C110.277 16.8596 110.085 17.1681 109.77 17.3394L110.382 18.4191H109.91L109.351 17.4252H108.739V18.4191ZM108.739 17.031H109.316C109.595 17.0481 109.84 16.8423 109.84 16.5682C109.84 16.294 109.648 16.054 109.368 16.054H108.739V17.031Z" fill="#616161"/>
</g>
<defs>
<clipPath id="clip0_6760_10170">
<rect width="122" height="49" fill="white"/>
</clipPath>
</defs>
</svg>
