<svg width="22" height="22" viewBox="0 0 22 22" fill="none" xmlns="http://www.w3.org/2000/svg">
<path d="M4.4375 21.5C2.26288 21.5 0.5 19.7371 0.5 17.5625V4.43748C0.5 2.26287 2.26288 0.5 4.4375 0.5H17.5625C19.7371 0.5 21.5 2.26287 21.5 4.43748L21.5 17.5625C21.5 19.7371 19.7371 21.5 17.5625 21.5H4.4375Z" fill="#F4F7FB"/>
<path d="M14.9379 10.9994H11.0004M11.0004 10.9994H7.06293M11.0004 10.9994V14.9368M11.0004 10.9994L11.0004 7.06188M21.5 4.43748L21.5 17.5625C21.5 19.7371 19.7371 21.5 17.5625 21.5H4.4375C2.26288 21.5 0.5 19.7371 0.5 17.5625V4.43748C0.5 2.26287 2.26288 0.5 4.4375 0.5H17.5625C19.7371 0.5 21.5 2.26287 21.5 4.43748Z" stroke="#8A8A8A" stroke-linecap="round"/>
</svg>
