<svg width="24" height="25" viewBox="0 0 24 25" fill="none" xmlns="http://www.w3.org/2000/svg">
<rect y="0.620117" width="24" height="24" rx="12" fill="#8AB820"/>
<path d="M15.588 6.00012H8.41309C6.43089 6.00012 4.81833 7.61269 4.81833 9.59488V16.1589C4.81833 18.1411 6.43089 19.7536 8.41309 19.7536H15.588C17.5702 19.7536 19.1827 18.1411 19.1827 16.1589V9.59488C19.1827 7.61269 17.5702 6.00012 15.588 6.00012ZM6.08645 9.59488C6.08645 8.31214 7.13035 7.26825 8.41309 7.26825H15.588C16.8707 7.26825 17.9146 8.31214 17.9146 9.59488V16.1589C17.9146 17.4416 16.8707 18.4855 15.588 18.4855H8.41309C7.13035 18.4855 6.08645 17.4416 6.08645 16.1589V9.59488Z" fill="#242323"/>
<path d="M12.0005 16.2198C13.8438 16.2198 15.3443 14.7202 15.3443 12.8761C15.3443 11.032 13.8446 9.53235 12.0005 9.53235C10.1564 9.53235 8.6568 11.032 8.6568 12.8761C8.6568 14.7202 10.1564 16.2198 12.0005 16.2198ZM12.0005 10.8013C13.1452 10.8013 14.0762 11.7323 14.0762 12.8769C14.0762 14.0215 13.1452 14.9525 12.0005 14.9525C10.8559 14.9525 9.92492 14.0215 9.92492 12.8769C9.92492 11.7323 10.8559 10.8013 12.0005 10.8013Z" fill="#242323"/>
<path d="M15.6538 10.0726C16.1502 10.0726 16.5547 9.66886 16.5547 9.17168C16.5547 8.67451 16.151 8.27075 15.6538 8.27075C15.1566 8.27075 14.7529 8.67451 14.7529 9.17168C14.7529 9.66886 15.1566 10.0726 15.6538 10.0726Z" fill="#242323"/>
</svg>
