<svg width="172" height="45" viewBox="0 0 172 45" fill="none" xmlns="http://www.w3.org/2000/svg">
<path d="M44.4949 31.036V34.5786L47.3449 31.036H48.5061L45.5626 34.6801L48.672 39.1095H47.352L44.487 34.8963V39.1095H43.4564V31.036H44.4958H44.4949ZM51.8105 31.036L53.3987 34.9395L55.0223 31.036H56.0749L53.8602 35.8704V39.1095H52.8429V35.8413L50.6634 31.0289H51.8176L51.8105 31.036ZM59.9061 31.036V38.2148H62.8567V39.1095H58.8746V31.036H59.9061ZM66.8034 31.036V39.1095H65.7649V31.036H66.8034ZM74.6979 31.036V31.9307H71.5655V34.5283H74.4737V35.416H71.5664V38.2218H74.7773V39.1166H70.5349V31.043H74.6979V31.036ZM85.8817 31.036V37.0465C85.8817 38.4671 85.167 39.2683 83.7023 39.2683C82.3681 39.2683 81.6323 38.5395 81.6323 36.9742C81.6323 36.8083 81.6323 36.7068 81.6393 36.5842H82.714C82.707 36.6636 82.707 36.7721 82.707 36.8948C82.707 37.5733 82.7723 38.3948 83.7173 38.3948C84.4893 38.3948 84.8573 37.8257 84.8573 36.8657V31.036H85.8896H85.8817ZM93.7531 31.036V31.9307H90.6226V34.5283H93.5299V35.416H90.6226V38.2218H93.8326V39.1166H89.5902V31.043H93.7531V31.036ZM98.479 31.036L101.654 37.9483V31.036H102.571V39.1095H101.171L97.9602 32.1107V39.1095H97.0293V31.036H98.479ZM107.737 31.036L110.911 37.9483V31.036H111.827V39.1095H110.428L107.217 32.1107V39.1095H106.286V31.036H107.737ZM119.656 31.036V31.9307H116.525V34.5283H119.432V35.416H116.525V38.2218H119.736V39.1166H115.493V31.043H119.656V31.036ZM125.717 31.036C126.771 31.036 127.607 31.7286 127.607 33.0415C127.607 34.0377 127.073 34.7304 126.128 34.9104C127.001 35.0551 127.427 35.4592 127.448 36.9883C127.463 37.7383 127.55 38.4177 127.716 39.1095H126.64C126.527 38.8167 126.464 38.5072 126.453 38.1936C126.431 37.6668 126.374 36.8877 126.367 36.6848C126.287 35.5095 125.76 35.401 124.786 35.401H123.913V39.1166H122.874V31.043H125.717V31.036ZM123.913 31.9307V34.5283H125.168C126.128 34.5283 126.554 34.0377 126.554 33.1713C126.554 32.3057 126.128 31.9307 125.393 31.9307H123.913ZM12.5961 6.00625H16.2755L11.7949 13.1921L16.2755 22.0245H12.5017L8.66344 13.8124H8.61932V22.0236H5.27344V6.00625H8.62109V12.8604H8.66432L12.597 6.00625H12.5961ZM20.3811 22.0236H23.7287V16.4754L28.2093 6.00625H24.7893L22.2349 12.7739L19.8473 6.00625H16.189L20.3802 16.4754L20.3811 22.0236ZM38.2964 22.0236V19.3615H33.2829V6.00625H29.9352V22.0236H38.2964ZM39.9129 22.0236H43.2605V6.00625H39.9129V22.0236ZM53.7949 22.0236V19.5636H48.2246V14.881H53.1958V12.4201H48.2246V8.46713H53.6149V6.00537H44.8699V22.0236H53.7949ZM101.985 22.0236V9.6636H102.029L104.958 22.0165H108.155L111.236 9.6636H111.279V22.0165H114.54V6.00625H109.331L106.668 16.8945H106.625L104.122 6.00625H98.7314V22.0236H101.993H101.985ZM125.075 22.0236V19.5636H119.505V14.881H124.476V12.4201H119.505V8.46713H124.894V6.00537H116.157V22.0236H125.075ZM126.525 6.00625V8.66831H130.255V22.0236H133.603V8.66831H137.333V6.00625H126.525ZM142.29 22.0236V6.00625H138.943V22.0236H142.29ZM68.074 22.2839C71.1976 22.2839 72.9084 20.9057 72.9084 16.6271H69.604C69.5599 17.8889 69.6252 19.8883 68.074 19.8883C66.1911 19.8883 65.9458 18.113 65.9458 14.0074C65.9458 9.90184 66.1911 8.12743 68.074 8.12743C69.0693 8.12743 69.4523 8.92772 69.4523 11.0568H72.7346C72.8652 7.62184 71.494 5.73184 68.074 5.73184C62.547 5.73184 62.547 9.76508 62.547 14.0083C62.547 18.2498 62.547 22.2839 68.074 22.2839ZM79.9284 22.2839C85.4484 22.2839 85.4484 18.1995 85.4484 14.0074C85.4484 9.81625 85.4484 5.73096 79.9284 5.73096C74.4093 5.73096 74.4023 9.76508 74.4023 14.0074C74.4023 18.2498 74.4023 22.2839 79.9284 22.2839ZM79.9284 19.8883C78.0455 19.8883 77.8002 18.113 77.8002 14.0074C77.8002 9.90184 78.0455 8.12743 79.9284 8.12743C81.8123 8.12743 82.0576 9.90184 82.0576 14.0074C82.0576 18.113 81.8123 19.8883 79.9284 19.8883ZM97.2667 17.6515C97.2667 12.6151 90.5211 12.8824 90.5211 9.84449C90.5211 8.73272 91.1626 8.13449 92.2523 8.13449C93.6014 8.13449 93.8034 9.3539 93.8034 10.5521H97.0646C97.2887 7.2036 95.6652 5.7389 92.404 5.7389C88.3205 5.7389 87.1223 7.73743 87.1223 10.2415C87.1223 15.0107 93.8687 15.1915 93.8687 18.0698C93.8687 19.1595 93.3129 19.8874 92.1799 19.8874C90.3402 19.8874 90.2758 18.6036 90.2758 17.0665H86.9273C86.7473 19.8371 87.5264 22.2839 91.6752 22.2839C94.2226 22.2839 97.2667 21.7933 97.2667 17.6515ZM149.433 22.2839C152.558 22.2839 154.268 20.9057 154.268 16.6271H150.963C150.92 17.8889 150.985 19.8883 149.433 19.8883C147.55 19.8883 147.305 18.113 147.305 14.0074C147.305 9.90184 147.55 8.12743 149.433 8.12743C150.429 8.12743 150.811 8.92772 150.811 11.0568H154.095C154.224 7.62184 152.853 5.73184 149.433 5.73184C143.907 5.73184 143.907 9.76508 143.907 14.0083C143.907 18.2498 143.907 22.2839 149.433 22.2839ZM165.906 17.6515C165.906 12.6151 159.159 12.8824 159.159 9.84449C159.159 8.73272 159.802 8.13449 160.891 8.13449C162.241 8.13449 162.443 9.3539 162.443 10.5521H165.704C165.928 7.2036 164.304 5.7389 161.043 5.7389C156.959 5.7389 155.761 7.73743 155.761 10.2415C155.761 15.0107 162.508 15.1915 162.508 18.0698C162.508 19.1595 161.952 19.8874 160.819 19.8874C158.979 19.8874 158.914 18.6036 158.914 17.0665H155.566C155.386 19.8371 156.165 22.2839 160.314 22.2839C162.861 22.2839 165.906 21.7933 165.906 17.6515Z" fill="#616161"/>
</svg>
