<svg width="77" height="18" viewBox="0 0 77 18" fill="none" xmlns="http://www.w3.org/2000/svg">
<g clip-path="url(#clip0_8705_7823)">
<path d="M68.8495 7.64373C71.0221 6.68339 72.4407 5.24119 72.5181 3.64126C72.5181 3.64126 71.9445 3.19728 70.0926 2.51262C68.4663 1.91139 67.2257 1.77379 67.2257 1.77379L67.2314 5.33852C67.2314 5.87119 67.0186 6.41489 66.6168 6.89627C65.3876 6.59805 64.029 6.43072 62.6042 6.43024H62.6032C61.1774 6.43072 59.8175 6.59853 58.5868 6.89722C58.185 6.41585 57.9717 5.87167 57.9717 5.33852L57.977 1.77379C57.977 1.77379 56.7373 1.91139 55.1101 2.51262C53.2582 3.19728 52.6855 3.64126 52.6855 3.64126C52.7624 5.24167 54.1815 6.68435 56.3565 7.64469C54.1834 8.60504 52.7648 10.0472 52.6879 11.6467C52.6879 11.6467 53.261 12.0911 55.113 12.7753C56.7397 13.3766 57.9798 13.5142 57.9798 13.5142L57.9741 9.94942C57.9741 9.41675 58.1869 8.87257 58.5892 8.39168C59.8184 8.69038 61.1765 8.85723 62.6013 8.85723C64.0276 8.85723 65.3885 8.6899 66.6187 8.39024C67.0205 8.87161 67.2333 9.41675 67.2333 9.94942L67.2285 13.5142C67.2285 13.5142 68.4687 13.3766 70.0954 12.7753C71.9473 12.0911 72.5204 11.6467 72.5204 11.6467C72.4431 10.0463 71.024 8.6036 68.8495 7.64373ZM62.6023 8.44586H62.6008L62.5603 8.4449C61.2738 8.4449 60.225 8.12846 59.4558 7.64469C60.225 7.15997 61.2743 6.84305 62.5631 6.84305L62.6028 6.84257H62.6047L62.6452 6.84305C63.9322 6.84305 64.9805 7.15949 65.7497 7.64325C64.9805 8.1275 63.9312 8.4449 62.6428 8.4449" fill="#616161"/>
<path d="M49.8432 17.4639C49.22 17.4639 49.209 16.9863 49.209 16.8022V15.9335C49.209 15.8807 49.2047 15.8107 49.3159 15.8107H49.638C49.7425 15.8107 49.7358 15.8855 49.7358 15.9335V16.8022C49.7358 16.8641 49.7473 17.03 49.9739 17.03H50.5141C50.7365 17.03 50.7493 16.8641 50.7493 16.8022V15.9335C50.7493 15.8855 50.7431 15.8107 50.8472 15.8107H51.1716C51.2895 15.8107 51.279 15.8855 51.279 15.9335V16.8022C51.279 16.9863 51.268 17.4639 50.6425 17.4639" fill="#616161"/>
<path d="M52.8275 17.3587C52.6075 17.061 52.2935 16.686 51.9733 16.29V17.3477C51.9733 17.3937 51.9848 17.4637 51.8755 17.4637H51.5749C51.4661 17.4637 51.479 17.3937 51.479 17.3477V15.9333C51.479 15.8854 51.4742 15.8106 51.5749 15.8106H52.1609C52.3265 15.8106 52.5622 16.1457 52.7168 16.3667C52.8361 16.5355 53.0565 16.7891 53.2045 16.9795V15.9333C53.2045 15.8854 53.1978 15.8106 53.3071 15.8106H53.6335C53.7384 15.8106 53.7317 15.8854 53.7317 15.9333V17.4637H53.1305C53.0017 17.4637 52.9449 17.4723 52.8275 17.3587Z" fill="#616161"/>
<path d="M55.3049 17.029C55.5683 17.029 55.5492 16.7749 55.5492 16.6589C55.5492 16.2691 55.44 16.2537 55.2658 16.2537H54.4379V17.029H55.3049ZM53.9297 17.4644V15.8136H55.3817C55.4705 15.8136 56.0651 15.803 56.0651 16.4307C56.0651 17.0726 56.1347 17.4644 55.3946 17.4644H54.6121L54.4422 17.1187V17.4644" fill="#616161"/>
<path d="M56.634 15.8238H57.9715C58.0851 15.8238 58.0698 15.8981 58.0698 16.0362C58.0698 16.1647 58.087 16.2371 57.9715 16.2371H56.9145C56.8864 16.2371 56.791 16.2217 56.791 16.3224C56.791 16.4231 56.7714 16.4629 56.8778 16.4629H57.8126C57.8126 16.4629 57.9476 16.7213 57.9629 16.765C57.9849 16.8043 57.9825 16.8417 57.8999 16.8417H56.9322L56.7819 16.5483V16.9817C56.7819 17.0824 56.8716 17.0627 56.8974 17.0627H57.9954C58.1046 17.0627 58.0956 17.1389 58.0956 17.2636C58.0956 17.3978 58.1046 17.4717 57.9954 17.4717H56.6053C56.4899 17.4717 56.2637 17.4367 56.2637 17.0737V16.1628C56.2637 16.0688 56.3138 15.8238 56.634 15.8238Z" fill="#616161"/>
<path d="M59.5957 16.2489H58.9444C58.836 16.2489 58.8399 16.2863 58.8399 16.3193V16.6147H59.5108C59.8357 16.6147 59.8357 16.5332 59.8357 16.4478C59.8357 16.2772 59.8228 16.2489 59.5957 16.2489ZM58.4304 15.813H59.8944C60.0905 15.813 60.3754 15.8111 60.3754 16.3428C60.3754 16.6909 60.3019 16.7082 60.1449 16.8156C60.4088 16.8616 60.374 17.2006 60.374 17.3761C60.374 17.4657 60.3415 17.4638 60.3148 17.4638H59.8858C59.7961 17.4638 59.8181 17.3214 59.8181 17.2471C59.8181 17.0433 59.705 17.0524 59.6611 17.0524H59.0293C58.9687 16.9469 58.8508 16.7106 58.8508 16.7106V17.3957C58.8508 17.4552 58.7917 17.4638 58.7702 17.4638H58.3393C58.3627 17.4638 58.2949 17.4681 58.2949 17.4087V15.9554C58.2949 15.8524 58.367 15.813 58.4304 15.813Z" fill="#616161"/>
<path d="M62.7209 16.2812L62.4508 16.776L62.4747 16.8H62.9781L63.0043 16.776C62.9867 16.7386 62.7691 16.3229 62.7471 16.2788L62.7209 16.2812ZM62.8951 15.8243C63.0019 15.8243 63.106 15.8722 63.2195 16.0933C63.2964 16.2505 63.8279 17.2157 63.9386 17.4175V17.4722H63.3851L63.2257 17.1831H62.5529C62.5529 17.1831 62.4398 16.9227 62.4074 16.8508C62.3659 16.9184 62.1435 17.3432 62.0667 17.4722H61.5117V17.4372C61.6248 17.2229 62.3983 15.8243 62.3983 15.8243" fill="#616161"/>
<path d="M65.3921 16.2489H64.7408C64.632 16.2489 64.6363 16.2863 64.6363 16.3193V16.6147H65.3072C65.6321 16.6147 65.6321 16.5332 65.6321 16.4478C65.6321 16.2772 65.6192 16.2489 65.3921 16.2489ZM64.2268 15.813H65.6908C65.8869 15.813 66.1723 15.8111 66.1723 16.3428C66.1723 16.6909 66.0988 16.7082 65.9413 16.8156C66.2047 16.8616 66.1699 17.2006 66.1699 17.3761C66.1699 17.4657 66.1375 17.4638 66.1112 17.4638H65.6822C65.5925 17.4638 65.6145 17.3214 65.6145 17.2471C65.6145 17.0433 65.5014 17.0524 65.4575 17.0524H64.8257C64.7646 16.9469 64.6468 16.7106 64.6468 16.7106V17.3957C64.6468 17.4552 64.5885 17.4638 64.5666 17.4638H64.1352C64.1591 17.4638 64.0918 17.4681 64.0918 17.4087V15.9554C64.0918 15.8524 64.1639 15.813 64.2268 15.813Z" fill="#616161"/>
<path d="M67.4498 17.4639C67.3406 17.2582 67.0375 16.691 66.8328 16.3194V17.3478C66.8328 17.3939 66.839 17.4639 66.7355 17.4639H66.4387C66.3275 17.4639 66.3361 17.3939 66.3361 17.3478V15.9335C66.3361 15.8855 66.3299 15.8131 66.4387 15.8131H66.9507C67.027 15.8131 67.1354 15.7954 67.258 16.0408C67.3496 16.2374 67.5438 16.6454 67.6765 16.8617C67.8134 16.6454 68.0119 16.2374 68.1036 16.0408C68.2233 15.7954 68.3297 15.8131 68.4147 15.8131H68.9243C69.0293 15.8131 69.0183 15.8855 69.0183 15.9335V17.3478C69.0183 17.3939 69.0331 17.4639 68.9243 17.4639H68.6261C68.5173 17.4639 68.5259 17.3939 68.5259 17.3478V16.3194C68.3192 16.691 68.0181 17.2582 67.9046 17.4639" fill="#616161"/>
<path d="M70.6534 17.043C70.9001 17.043 70.891 16.7874 70.891 16.6163C70.891 16.4628 70.9259 16.2222 70.6057 16.2222H70.0626C69.7448 16.2222 69.7821 16.4628 69.7821 16.6163C69.7821 16.7874 69.7668 17.043 70.013 17.043H70.6534ZM69.6776 17.4678C69.1918 17.4678 69.2133 16.9442 69.2133 16.6057C69.2133 16.2946 69.1784 15.8089 69.7864 15.8041H70.8653C71.4751 15.8041 71.4355 16.2965 71.4355 16.6057C71.4355 16.9442 71.4598 17.4678 70.9669 17.4678" fill="#616161"/>
<path d="M72.2475 17.4639C71.6238 17.4639 71.6133 16.9863 71.6133 16.8022V15.9335C71.6133 15.8807 71.609 15.8107 71.7202 15.8107H72.0428C72.1468 15.8107 72.1406 15.8855 72.1406 15.9335V16.8022C72.1406 16.8641 72.1516 17.03 72.3782 17.03H72.9184C73.1408 17.03 73.1536 16.8641 73.1536 16.8022V15.9335C73.1536 15.8855 73.147 15.8107 73.2515 15.8107H73.5759C73.6938 15.8107 73.6833 15.8855 73.6833 15.9335V16.8022C73.6833 16.9863 73.6723 17.4639 73.0467 17.4639" fill="#616161"/>
<path d="M75.1929 16.2489H74.5415C74.4327 16.2489 74.437 16.2863 74.437 16.3193V16.6147H75.108C75.4329 16.6147 75.4329 16.5332 75.4329 16.4478C75.4329 16.2772 75.42 16.2489 75.1929 16.2489ZM74.0271 15.813H75.4916C75.6877 15.813 75.9736 15.8111 75.9736 16.3428C75.9736 16.6909 75.8991 16.7082 75.7421 16.8156C76.006 16.8616 75.9712 17.2006 75.9712 17.3761C75.9712 17.4657 75.9387 17.4638 75.912 17.4638H75.483C75.3938 17.4638 75.4153 17.3214 75.4153 17.2471C75.4153 17.0433 75.3022 17.0524 75.2587 17.0524H74.6265C74.5659 16.9469 74.448 16.7106 74.448 16.7106V17.3957C74.448 17.4552 74.3888 17.4638 74.3674 17.4638H73.9365C73.9599 17.4638 73.8926 17.4681 73.8926 17.4087V15.9554C73.8926 15.8524 73.9646 15.813 74.0271 15.813Z" fill="#616161"/>
</g>
<g clip-path="url(#clip1_8705_7823)">
<path d="M17.3745 11.6325L12.129 2.50466L15.8974 0.337402L22.4201 11.6325H17.3745Z" fill="url(#paint0_linear_8705_7823)"/>
<path d="M3.40284 10.3536L7.17118 8.17172L9.16504 11.6325H4.13408L3.40284 10.3536Z" fill="url(#paint1_linear_8705_7823)"/>
<path d="M10.7982 17.4557H11.8706V13.1115H10.7982V17.4557Z" fill="url(#paint2_linear_8705_7823)"/>
<path d="M24.2384 17.5583C23.0392 17.5583 22.3177 16.9383 22.2787 16.0646H23.4097C23.4097 16.338 23.5803 16.7382 24.3115 16.7529C24.799 16.7529 25.0282 16.4649 25.0282 16.2501C24.9989 15.9084 24.5699 15.8791 24.1117 15.8059C23.6534 15.7327 23.2634 15.6497 22.9807 15.5033C22.6199 15.3178 22.3762 14.9175 22.3762 14.4587C22.3762 13.6826 23.0489 13.0676 24.1702 13.0676C25.2573 13.0676 25.9447 13.6387 26.0178 14.488H24.9258C24.916 14.2586 24.8722 13.8974 24.2287 13.8974C23.7948 13.8974 23.5072 13.9852 23.4828 14.2879C23.4828 14.732 24.3847 14.7028 25.0867 14.8882C25.7594 15.0591 26.1884 15.4789 26.1884 16.0646C26.1884 17.1434 25.3158 17.5583 24.2384 17.5583Z" fill="url(#paint3_linear_8705_7823)"/>
<path d="M7.81955 6.47795L11.5879 4.30094L15.8145 11.6325H11.8706V12.7063H10.7982V11.6276L7.81955 6.47795Z" fill="url(#paint4_linear_8705_7823)"/>
<path d="M7.91705 17.5583C6.66906 17.5583 5.65507 16.5381 5.65507 15.3031C5.65507 14.0536 6.66906 13.0676 7.91705 13.0676C8.38992 13.0676 8.81892 13.1945 9.19429 13.4532V11.6325H10.2668V17.4557H9.19429V17.1678C8.81892 17.4118 8.38992 17.5583 7.91705 17.5583ZM6.68368 15.3031C6.68368 15.9767 7.25893 16.5381 7.9463 16.5381C8.61904 16.5381 9.19429 15.9767 9.19429 15.3031C9.19429 14.6295 8.61904 14.0536 7.9463 14.0536C7.25893 14.0536 6.68368 14.6295 6.68368 15.3031Z" fill="url(#paint5_linear_8705_7823)"/>
<path d="M15.8437 11.6325H16.9016V17.4557H15.8437V17.1678C15.483 17.4118 15.0394 17.5583 14.5519 17.5583C13.3185 17.5583 12.3045 16.5381 12.3045 15.3031C12.3045 14.0536 13.3185 13.0676 14.5519 13.0676C15.0394 13.0676 15.4684 13.1945 15.8437 13.4532V11.6325ZM13.3478 15.3031C13.3478 15.9767 13.923 16.5381 14.5811 16.5381C15.2685 16.5381 15.8437 15.9767 15.8437 15.3031C15.8437 14.6295 15.2685 14.0536 14.5811 14.0536C13.923 14.0536 13.3478 14.6295 13.3478 15.3031Z" fill="url(#paint6_linear_8705_7823)"/>
<path d="M19.5097 17.5583C18.2812 17.5583 17.2623 16.5381 17.2623 15.3031C17.2623 14.0536 18.2812 13.0676 19.5097 13.0676C19.9826 13.0676 20.4262 13.1945 20.7869 13.4532V13.1066H21.8594V17.4557H20.7869V17.1678C20.4262 17.4118 19.9972 17.5583 19.5097 17.5583ZM18.3056 15.3031C18.3056 15.9767 18.8808 16.5381 19.5536 16.5381C20.2263 16.5381 20.7869 15.9767 20.7869 15.3031C20.7869 14.6295 20.2263 14.0536 19.5536 14.0536C18.8808 14.0536 18.3056 14.6295 18.3056 15.3031Z" fill="url(#paint7_linear_8705_7823)"/>
<path d="M1.71123 15.3031C1.71123 15.9767 2.28647 16.5381 2.95922 16.5381C3.64658 16.5381 4.22183 15.9767 4.22183 15.3031C4.22183 14.6295 3.64658 14.0536 2.95922 14.0536C2.28647 14.0536 1.71123 14.6295 1.71123 15.3031ZM2.92997 17.5583C1.6966 17.5583 0.677734 16.5381 0.677734 15.3031C0.677734 14.0536 1.6966 13.0676 2.92997 13.0676C3.40284 13.0676 3.84646 13.1945 4.22183 13.4532V13.1066H5.2797V17.4557H4.22183V17.1678C3.86108 17.4118 3.41746 17.5583 2.92997 17.5583Z" fill="url(#paint8_linear_8705_7823)"/>
</g>
<defs>
<linearGradient id="paint0_linear_8705_7823" x1="0.677734" y1="8.94783" x2="26.1884" y2="8.94783" gradientUnits="userSpaceOnUse">
<stop stop-color="#C7C7C7" stop-opacity="0.1"/>
<stop offset="0.681558" stop-color="#616161"/>
</linearGradient>
<linearGradient id="paint1_linear_8705_7823" x1="0.677734" y1="8.94783" x2="26.1884" y2="8.94783" gradientUnits="userSpaceOnUse">
<stop stop-color="#C7C7C7" stop-opacity="0.1"/>
<stop offset="0.681558" stop-color="#616161"/>
</linearGradient>
<linearGradient id="paint2_linear_8705_7823" x1="0.677734" y1="8.94783" x2="26.1884" y2="8.94783" gradientUnits="userSpaceOnUse">
<stop stop-color="#C7C7C7" stop-opacity="0.1"/>
<stop offset="0.681558" stop-color="#616161"/>
</linearGradient>
<linearGradient id="paint3_linear_8705_7823" x1="0.677734" y1="8.94783" x2="26.1884" y2="8.94783" gradientUnits="userSpaceOnUse">
<stop stop-color="#C7C7C7" stop-opacity="0.1"/>
<stop offset="0.681558" stop-color="#616161"/>
</linearGradient>
<linearGradient id="paint4_linear_8705_7823" x1="0.677734" y1="8.94783" x2="26.1884" y2="8.94783" gradientUnits="userSpaceOnUse">
<stop stop-color="#C7C7C7" stop-opacity="0.1"/>
<stop offset="0.681558" stop-color="#616161"/>
</linearGradient>
<linearGradient id="paint5_linear_8705_7823" x1="0.677734" y1="8.94783" x2="26.1884" y2="8.94783" gradientUnits="userSpaceOnUse">
<stop stop-color="#C7C7C7" stop-opacity="0.1"/>
<stop offset="0.681558" stop-color="#616161"/>
</linearGradient>
<linearGradient id="paint6_linear_8705_7823" x1="0.677734" y1="8.94783" x2="26.1884" y2="8.94783" gradientUnits="userSpaceOnUse">
<stop stop-color="#C7C7C7" stop-opacity="0.1"/>
<stop offset="0.681558" stop-color="#616161"/>
</linearGradient>
<linearGradient id="paint7_linear_8705_7823" x1="0.677734" y1="8.94783" x2="26.1884" y2="8.94783" gradientUnits="userSpaceOnUse">
<stop stop-color="#C7C7C7" stop-opacity="0.1"/>
<stop offset="0.681558" stop-color="#616161"/>
</linearGradient>
<linearGradient id="paint8_linear_8705_7823" x1="0.677734" y1="8.94783" x2="26.1884" y2="8.94783" gradientUnits="userSpaceOnUse">
<stop stop-color="#C7C7C7" stop-opacity="0.1"/>
<stop offset="0.681558" stop-color="#616161"/>
</linearGradient>
<clipPath id="clip0_8705_7823">
<rect width="26.9446" height="15.8781" fill="white" transform="translate(49.1191 1.68408)"/>
</clipPath>
<clipPath id="clip1_8705_7823">
<rect width="25.7809" height="17.8027" fill="white" transform="translate(0.521484)"/>
</clipPath>
</defs>
</svg>
