<svg width="47" height="47" viewBox="0 0 47 47" fill="none" xmlns="http://www.w3.org/2000/svg">
<rect x="0.5" y="0.122803" width="46" height="46" rx="23" fill="#EFF3F6"/>
<path d="M23.1504 12.8987C28.1057 12.6494 32.223 16.6642 31.9502 21.4798C31.856 23.1402 31.2497 24.668 30.2822 25.9163L24.6162 33.3167C24.1049 33.9845 23.0767 33.9845 22.5654 33.3167L16.8994 25.9163L16.707 25.6575C15.7689 24.3429 15.2189 22.7468 15.2188 21.0257C15.2188 16.6752 18.7314 13.1214 23.1504 12.8987ZM23.5908 15.679C20.5084 15.679 18.0098 18.1776 18.0098 21.26C18.0098 24.3425 20.5084 26.8411 23.5908 26.8411C26.6733 26.8411 29.1718 24.3425 29.1719 21.26C29.1719 18.1776 26.6733 15.679 23.5908 15.679Z" fill="#8AB820"/>
</svg>
