<svg width="47" height="47" viewBox="0 0 47 47" fill="none" xmlns="http://www.w3.org/2000/svg">
<rect x="0.5" y="0.122803" width="46" height="46" rx="23" fill="#EFF3F6"/>
<path d="M13.5177 15.8875C13.1947 16.226 12.9961 16.6844 12.9961 17.1882V29.3389C12.9961 30.3786 13.8418 31.2243 14.8815 31.2243H32.1151C33.1549 31.2243 34.0006 30.3786 34.0006 29.3389V17.1882C34.0006 16.6844 33.802 16.226 33.479 15.8875L24.1033 25.6391C24.0984 25.6444 24.0931 25.6493 24.0882 25.6542C23.9274 25.8036 23.7183 25.8857 23.4989 25.8857C23.2795 25.8857 23.0704 25.8036 22.9096 25.6542C22.9043 25.6493 22.8994 25.6444 22.8945 25.6391L13.5177 15.8875Z" fill="#8AB820"/>
<path d="M23.4312 25.1039C23.4701 25.1361 23.5299 25.1361 23.5688 25.1039L32.8496 15.451C32.6242 15.3557 32.3765 15.3027 32.1166 15.3027H14.8834C14.6235 15.3027 14.3758 15.3557 14.1504 15.451L23.4312 25.1039Z" fill="#8AB820"/>
</svg>
