<svg width="136" height="12" viewBox="0 0 136 12" fill="none" xmlns="http://www.w3.org/2000/svg">
<path d="M11.3088 7.99161V8.84389L11.9945 7.99161H12.2738L11.5657 8.8683L12.3137 9.93392H11.9962L11.3069 8.92031V9.93392H11.059V7.99161H11.309H11.3088ZM13.0688 7.99161L13.4509 8.93071L13.8415 7.99161H14.0947L13.5619 9.15466V9.93392H13.3172V9.14766L12.7928 7.98991H13.0705L13.0688 7.99161ZM15.0164 7.99161V9.71867H15.7263V9.93392H14.7683V7.99161H15.0164ZM16.6758 7.99161V9.93392H16.4259V7.99161H16.6758ZM18.575 7.99161V8.20686H17.8214V8.83179H18.521V9.04534H17.8216V9.72037H18.5941V9.93562H17.5735V7.99331H18.575V7.99161ZM21.2655 7.99161V9.43762C21.2655 9.77938 21.0936 9.97213 20.7412 9.97213C20.4203 9.97213 20.2432 9.79679 20.2432 9.42021C20.2432 9.38031 20.2432 9.3559 20.2449 9.32639H20.5035C20.5018 9.34549 20.5018 9.3716 20.5018 9.40111C20.5018 9.56435 20.5175 9.76198 20.7448 9.76198C20.9306 9.76198 21.0191 9.62506 21.0191 9.3941V7.99161H21.2674H21.2655ZM23.1592 7.99161V8.20686H22.4061V8.83179H23.1055V9.04534H22.4061V9.72037H23.1783V9.93562H22.1577V7.99331H23.1592V7.99161ZM24.2962 7.99161L25.0599 9.65456V7.99161H25.2805V9.93392H24.9438L24.1714 8.25016V9.93392H23.9474V7.99161H24.2962ZM26.5233 7.99161L27.2871 9.65456V7.99161H27.5075V9.93392H27.1708L26.3983 8.25016V9.93392H26.1744V7.99161H26.5233ZM29.391 7.99161V8.20686H28.6376V8.83179H29.337V9.04534H28.6376V9.72037H29.4101V9.93562H28.3894V7.99331H29.391V7.99161ZM30.8491 7.99161C31.1025 7.99161 31.3038 8.15825 31.3038 8.47411C31.3038 8.71377 31.1753 8.8804 30.948 8.92371C31.1579 8.95852 31.2605 9.05574 31.2655 9.42361C31.2692 9.60404 31.29 9.7675 31.3299 9.93392H31.0711C31.044 9.86348 31.0288 9.78901 31.0261 9.71358C31.0208 9.58685 31.007 9.39941 31.0053 9.35059C30.9862 9.06784 30.8595 9.04173 30.6251 9.04173H30.415V9.93562H30.1651V7.99331H30.8491V7.99161ZM30.415 8.20686V8.83179H30.717C30.948 8.83179 31.0503 8.71377 31.0503 8.50531C31.0503 8.29707 30.948 8.20686 30.7709 8.20686H30.415ZM3.63471 1.97004H4.51989L3.44196 3.6988L4.51989 5.82366H3.61199L2.6886 3.84803H2.67799V5.82345H1.87305V1.97004H2.67841V3.61898H2.68882L3.63492 1.97004H3.63471ZM5.5076 5.82345H6.31297V4.48867L7.39089 1.97004H6.56812L5.95359 3.59818L5.37917 1.97004H4.49909L5.50739 4.48867L5.5076 5.82345ZM9.81761 5.82345V5.18302H8.61147V1.97004H7.8061V5.82345H9.81761ZM10.2065 5.82345H11.0119V1.97004H10.2065V5.82345ZM13.5462 5.82345V5.23163H12.2061V4.10509H13.4021V3.51306H12.2061V2.56207H13.5029V1.96983H11.399V5.82345H13.5462ZM25.1397 5.82345V2.84991H25.1502L25.8549 5.82175H26.624L27.3652 2.84991H27.3756V5.82175H28.1602V1.97004H26.9069L26.2663 4.5895H26.2559L25.6537 1.97004H24.3569V5.82345H25.1417H25.1397ZM30.6945 5.82345V5.23163H29.3544V4.10509H30.5504V3.51306H29.3544V2.56207H30.651V1.96983H28.5491V5.82345H30.6945ZM31.0433 1.97004V2.61047H31.9408V5.82345H32.7462V2.61047H33.6437V1.97004H31.0433ZM34.8362 5.82345V1.97004H34.0308V5.82345H34.8362ZM16.9814 5.88607C17.7329 5.88607 18.1445 5.55449 18.1445 4.52518H17.3495C17.3389 4.82873 17.3546 5.30974 16.9814 5.30974C16.5284 5.30974 16.4694 4.88265 16.4694 3.89494C16.4694 2.90723 16.5284 2.48034 16.9814 2.48034C17.2209 2.48034 17.313 2.67288 17.313 3.18509H18.1027C18.1341 2.35871 17.8042 1.90402 16.9814 1.90402C15.6517 1.90402 15.6517 2.87432 15.6517 3.89515C15.6517 4.91555 15.6517 5.88607 16.9814 5.88607ZM19.8333 5.88607C21.1613 5.88607 21.1613 4.90345 21.1613 3.89494C21.1613 2.88664 21.1613 1.90381 19.8333 1.90381C18.5056 1.90381 18.5039 2.87432 18.5039 3.89494C18.5039 4.91555 18.5039 5.88607 19.8333 5.88607ZM19.8333 5.30974C19.3803 5.30974 19.3213 4.88265 19.3213 3.89494C19.3213 2.90723 19.3803 2.48034 19.8333 2.48034C20.2865 2.48034 20.3455 2.90723 20.3455 3.89494C20.3455 4.88265 20.2865 5.30974 19.8333 5.30974ZM24.0045 4.77163C24.0045 3.55997 22.3817 3.62429 22.3817 2.89343C22.3817 2.62596 22.536 2.48204 22.7982 2.48204C23.1227 2.48204 23.1713 2.77541 23.1713 3.06367H23.9559C24.0098 2.25809 23.6192 1.90572 22.8347 1.90572C21.8523 1.90572 21.564 2.38652 21.564 2.98895C21.564 4.13629 23.187 4.17981 23.187 4.87225C23.187 5.1344 23.0533 5.30953 22.7807 5.30953C22.3382 5.30953 22.3227 5.00067 22.3227 4.63089H21.5171C21.4738 5.29743 21.6612 5.88607 22.6593 5.88607C23.2722 5.88607 24.0045 5.76804 24.0045 4.77163ZM36.5546 5.88607C37.3062 5.88607 37.7176 5.55449 37.7176 4.52518H36.9226C36.9122 4.82873 36.928 5.30974 36.5546 5.30974C36.1016 5.30974 36.0426 4.88265 36.0426 3.89494C36.0426 2.90723 36.1016 2.48034 36.5546 2.48034C36.7942 2.48034 36.8861 2.67288 36.8861 3.18509H37.676C37.7072 2.35871 37.3773 1.90402 36.5546 1.90402C35.2251 1.90402 35.2251 2.87432 35.2251 3.89515C35.2251 4.91555 35.2251 5.88607 36.5546 5.88607ZM40.5175 4.77163C40.5175 3.55997 38.8945 3.62429 38.8945 2.89343C38.8945 2.62596 39.049 2.48204 39.3111 2.48204C39.6357 2.48204 39.6843 2.77541 39.6843 3.06367H40.4689C40.5228 2.25809 40.1322 1.90572 39.3477 1.90572C38.365 1.90572 38.077 2.38652 38.077 2.98895C38.077 4.13629 39.7 4.17981 39.7 4.87225C39.7 5.1344 39.5663 5.30953 39.2937 5.30953C38.8512 5.30953 38.8354 5.00067 38.8354 4.63089H38.0301C37.9868 5.29743 38.1742 5.88607 39.1723 5.88607C39.7849 5.88607 40.5175 5.76804 40.5175 4.77163Z" fill="#616161"/>
<g clip-path="url(#clip0_8705_7825)">
<path fill-rule="evenodd" clip-rule="evenodd" d="M88.4087 11.832H59.0625V0.0437012H88.4129V11.832H88.4087Z" fill="#616161"/>
<path fill-rule="evenodd" clip-rule="evenodd" d="M59.6484 5.93778C59.6484 8.83549 65.5527 11.2425 73.7387 11.2425C81.9248 11.2425 87.8248 8.83549 87.8248 5.93778C87.8248 3.04008 81.9206 0.633057 73.7387 0.633057C65.5568 0.633057 59.6484 3.04008 59.6484 5.93778Z" fill="#242323"/>
<path d="M72.6957 7.7076C72.7882 7.83954 72.8892 7.96323 73.007 8.07457H69.8309C69.8309 7.95085 69.7089 7.69935 69.5743 7.50145C69.4397 7.30353 68.7119 6.21918 68.7119 6.21918V7.7076C68.7119 7.83129 68.7119 7.95085 68.775 8.07457H66.129C66.1921 7.95085 66.1921 7.83129 66.1921 7.7076V4.16997C66.1921 4.04628 66.1921 3.92671 66.129 3.80303H68.775C68.7119 3.92671 68.7119 4.04628 68.7119 4.16997V5.71615C68.7119 5.71615 69.5575 4.6359 69.751 4.38436C69.8982 4.19472 70.0791 3.92668 70.0791 3.80303H72.8387C72.6494 3.92671 72.4391 4.14937 72.2666 4.35551C72.1151 4.53693 71.257 5.56358 71.257 5.56358C71.257 5.56358 72.5274 7.46435 72.6957 7.7076ZM73.5286 4.16997V7.7076C73.5286 7.83129 73.5286 7.95085 73.4655 8.07457H78.5724V6.8871C78.4462 6.94893 78.3242 6.94893 78.198 6.94893H76.0484V6.3882H78.1139V5.48934H76.0484V4.9245H78.198C78.3242 4.9245 78.4462 4.9245 78.5724 4.98224V3.7989H73.4655C73.5286 3.92671 73.5286 4.04628 73.5286 4.16997ZM85.6481 7.7076C85.6901 7.84366 85.7617 7.96735 85.8542 8.07457H83.0862C83.0988 7.95085 83.0526 7.83129 83.0021 7.7076C83.0021 7.7076 82.96 7.60864 82.9011 7.46435L82.8759 7.40249H81.2815L81.2563 7.46844C81.2563 7.46844 81.21 7.58804 81.1679 7.71172C81.1259 7.83541 81.0796 7.95498 81.0964 8.07866H78.9132C79.0023 7.97052 79.0695 7.84585 79.1109 7.71172L80.4192 4.17409C80.4654 4.0504 80.5117 3.93084 80.4949 3.80715H84.1841C84.1505 3.93084 84.2178 4.0504 84.2641 4.17409C84.3734 4.4421 85.5555 7.46844 85.6481 7.7076ZM82.5267 6.49954L82.1397 5.50997C82.106 5.41929 82.0766 5.32445 82.0556 5.22961C82.0387 5.32515 82.0134 5.41898 81.9798 5.50997C81.9672 5.55123 81.8031 5.98415 81.6138 6.49954H82.5267ZM64.8754 3.80303H61.998C62.0612 3.92671 62.0612 4.04628 62.0612 4.16997V7.7076C62.0612 7.83129 62.0612 7.95085 61.998 8.07457H64.8754C64.8123 7.95085 64.8123 7.83129 64.8123 7.7076V4.16997C64.8123 4.04628 64.8123 3.92671 64.8754 3.80303ZM84.7647 4.14111C84.752 3.84013 84.9918 3.58863 85.2989 3.58037H85.3368C85.6481 3.57625 85.9047 3.81537 85.9089 4.12048V4.14111C85.9173 4.45035 85.6691 4.7101 85.3494 4.71836C85.0339 4.72661 84.7689 4.48333 84.7605 4.16997C84.7647 4.16171 84.7647 4.14937 84.7647 4.14111ZM84.8782 4.14111C84.8782 4.38849 85.0844 4.59054 85.3368 4.59054C85.5892 4.59054 85.7953 4.38849 85.7953 4.14111C85.7953 3.89374 85.5892 3.69169 85.3368 3.69169C85.0928 3.68343 84.8867 3.86898 84.8782 4.10811V4.14111ZM85.2232 4.47508H85.1222V3.7989H85.3788C85.5009 3.80303 85.5934 3.89783 85.5934 4.01743C85.5934 4.09988 85.5471 4.17409 85.4714 4.21532L85.6186 4.47508H85.5051L85.3704 4.23595H85.2232V4.47508ZM85.2232 4.14111H85.362C85.4293 4.14524 85.4882 4.09573 85.4882 4.02977C85.4882 3.96382 85.4419 3.90608 85.3746 3.90608H85.2232V4.14111Z" fill="#616161"/>
</g>
<g clip-path="url(#clip1_8705_7825)">
<mask id="mask0_8705_7825" style="mask-type:luminance" maskUnits="userSpaceOnUse" x="105" y="2" width="31" height="8">
<path d="M135.428 9.64668V2.20898H105.252V9.64668H135.428Z" fill="white"/>
</mask>
<g mask="url(#mask0_8705_7825)">
<path fill-rule="evenodd" clip-rule="evenodd" d="M122.77 7.9066C122.935 7.23463 122.733 6.60936 122.221 5.83316C121.732 5.0953 121.521 4.71517 121.544 4.13051C121.575 3.35608 122.074 2.73455 122.83 2.26346C122.474 2.26346 120.441 2.26651 120.441 2.26651C119.566 2.90898 119.236 3.82392 119.243 4.45922C119.253 5.04004 119.435 5.46846 119.821 6.02175C120.138 6.47455 120.45 6.87209 120.463 7.40778C120.477 8.08438 119.968 8.6536 119.308 9.09204L121.33 9.64671C121.947 9.27208 122.598 8.59234 122.77 7.9066ZM124.143 3.9782H125.422V8.48595H127.289V3.9782H128.571V2.35618H124.143V3.9782ZM110.764 7.71584L109.483 6.43542C109.223 6.69215 108.873 6.84839 108.48 6.84839C107.7 6.84839 107.065 6.21693 107.065 5.43316C107.065 4.65391 107.7 4.0194 108.48 4.0194C108.874 4.0194 109.236 4.18105 109.494 4.44241L110.775 3.16296C110.189 2.57221 109.378 2.20898 108.48 2.20898C106.697 2.20898 105.252 3.65155 105.252 5.43316C105.252 7.21693 106.697 8.66058 108.48 8.66058C109.371 8.66058 110.179 8.3004 110.764 7.71584ZM131.824 6.02627L132.287 4.10298H132.307L132.76 6.02627H131.824ZM133.443 2.35618H131.19L129.249 8.48595H131.242L131.498 7.48831H133.115L133.368 8.48595H135.428L133.443 2.35618ZM114.709 6.84692C113.929 6.84692 113.293 6.21241 113.293 5.43237C113.293 4.65155 113.929 4.01792 114.709 4.01792C115.492 4.01792 116.126 4.65155 116.126 5.43237C116.126 6.21241 115.492 6.84692 114.709 6.84692ZM114.709 2.20898C112.926 2.20898 111.483 3.65155 111.483 5.43316C111.483 7.21693 112.926 8.66058 114.709 8.66058C116.494 8.66058 117.938 7.21693 117.938 5.43316C117.938 3.65155 116.494 2.20898 114.709 2.20898Z" fill="#616161"/>
</g>
</g>
<defs>
<clipPath id="clip0_8705_7825">
<rect width="29.3504" height="11.7883" fill="white" transform="translate(59.0625 0.0437012)"/>
</clipPath>
<clipPath id="clip1_8705_7825">
<rect width="30.1867" height="7.45789" fill="white" transform="translate(105.252 2.20898)"/>
</clipPath>
</defs>
</svg>
