<svg width="111" height="66" viewBox="0 0 111 66" fill="none" xmlns="http://www.w3.org/2000/svg">
<g clip-path="url(#clip0_6760_10184)">
<path d="M36.7002 0.522852V41.0037H32.9799V7.94333L19.6673 33.8044H17.053L3.72029 8.00366V41.0037H0V0.522852H3.88117L18.3803 28.4753L32.8793 0.522852H36.7002ZM76.0951 41.5868L69.3583 34.3876C66.925 38.2084 63.6069 41.0037 58.1572 41.0037C51.1389 41.0037 45.9708 36.1371 45.9708 30.1645C45.9708 25.1773 49.0475 22.1005 54.9598 18.7422C51.6015 15.3839 49.7313 12.5887 49.7313 9.29068C49.7313 4.48446 53.7934 0.64351 58.7203 0.64351C63.9488 0.64351 67.83 4.46435 67.83 9.29068C67.83 13.936 64.17 17.053 60.5302 19.4461L68.8757 28.5558L73.8026 20.5521L76.7587 22.4022L71.309 31.2706L78.7898 39.2139L76.0951 41.5868ZM57.2925 21.2761C52.0238 24.1718 49.691 26.5046 49.691 30.0841C49.691 34.2066 53.4113 37.6252 58.1572 37.6252C62.4406 37.6252 64.6526 35.6545 67.0256 31.8336L57.2925 21.2761ZM53.4113 9.27057C53.4113 11.5229 54.9196 13.4534 58.2176 16.9927C62.0987 14.7203 64.2505 12.3473 64.2505 9.27057C64.2505 6.25411 62.2194 3.88117 58.7404 3.88117C55.5027 3.88117 53.4113 6.4351 53.4113 9.27057ZM110.181 9.17002L106.823 10.3967C105.495 6.15356 101.715 3.41865 96.6069 3.41865C91.0366 3.41865 87.3967 6.19378 87.3967 10.8995C87.3967 20.9945 110.483 15.6453 110.483 29.8629C110.483 36.6399 105.033 41.4058 96.9086 41.4058C89.3675 41.4058 84.8428 37.8062 81.7258 32.075L84.8629 30.1645C86.9543 34.5686 90.7751 37.9872 96.5868 37.9872C103.303 37.9872 106.803 34.9104 106.803 29.8026C106.803 19.6472 83.7166 24.6344 83.7166 10.8391C83.7166 2.65448 91.0768 0 96.5265 0C102.64 0 108.21 2.77514 110.181 9.17002Z" fill="#616161"/>
<path d="M26.5845 62.0988H30.526V61.0531H26.5845V58.4389H30.8076V57.373H25.4785V65.8392H31.0489V64.7935H26.5845V62.0988Z" fill="#616161"/>
<path d="M36.7198 61.0127L36.6796 60.9926C35.473 60.6507 34.8094 60.4094 34.8094 59.6251C34.8094 58.8408 35.473 58.3381 36.4986 58.3381C37.3432 58.3381 37.9867 58.68 38.2682 59.3235L38.3889 59.5849L39.2938 59.062L39.2134 58.8609C38.6101 57.4131 37.0214 57.3125 36.5388 57.3125C35.4931 57.3125 33.7436 57.8152 33.7436 59.6653C33.7436 61.2942 35.1915 61.7165 36.4785 62.0986C37.7454 62.4606 38.4492 62.722 38.4492 63.5465C38.4492 64.4112 37.7052 64.9743 36.5388 64.9743C35.473 64.9743 34.6887 64.5118 34.2664 63.6269L34.1457 63.3655L33.2207 63.9085L33.3213 64.1297C33.9245 65.3363 35.0507 66.02 36.4986 66.02C38.2682 66.02 39.515 64.9743 39.515 63.4862C39.4949 61.8171 37.9666 61.3747 36.7198 61.0127Z" fill="#616161"/>
<path d="M41.4258 58.4389H43.9998V65.8392H45.1059V58.4389H47.6799V57.373H41.4258V58.4389Z" fill="#616161"/>
<path d="M50.5755 64.532C50.1934 64.532 49.8516 64.8537 49.8516 65.2358C49.8516 65.6179 50.1733 65.9598 50.5755 65.9598C50.9576 65.9598 51.2995 65.638 51.2995 65.2358C51.2794 64.8537 50.9576 64.532 50.5755 64.532Z" fill="#616161"/>
<path d="M56.8906 58.7807H58.1575V65.8392H59.2636V57.7148H56.9107L56.8906 58.7807Z" fill="#616161"/>
<path d="M83.6163 57.7148H82.9929L79.0312 63.2048V63.9488H83.1537V65.8593H84.2195V63.9488H85.2653V63.0238L84.2195 62.9233V57.7148H83.6565M80.5194 62.883L83.1738 59.2231V62.883H80.5194Z" fill="#616161"/>
<path d="M66.9048 61.5557C67.6087 61.1736 68.031 60.5904 68.031 59.7659C68.031 58.2979 66.8445 57.574 65.4167 57.574C63.9688 57.574 62.8024 58.318 62.8024 59.7659C62.8024 60.5904 63.2046 61.1736 63.9085 61.5557C63.1644 61.8976 62.541 62.521 62.541 63.4661C62.541 64.914 63.5867 65.8994 65.4167 65.8994C67.2467 65.8994 68.2924 64.8738 68.2924 63.4661C68.2723 62.521 67.6489 61.9177 66.9048 61.5557ZM63.8079 59.8263C63.8079 58.9615 64.371 58.4588 65.4167 58.4588C66.4423 58.4588 67.0255 58.9615 67.0255 59.8263C67.0255 60.691 66.2211 61.1334 65.4167 61.1334C64.5319 61.1334 63.8079 60.6306 63.8079 59.8263ZM65.3966 65.0347C64.371 65.0347 63.5867 64.5319 63.5867 63.4862C63.5867 62.5009 64.4514 62.0182 65.3966 62.0182C66.3417 62.0182 67.2065 62.5009 67.2065 63.4862C67.2065 64.5319 66.4222 65.0347 65.3966 65.0347Z" fill="#616161"/>
<path d="M74.9888 61.5557C75.6926 61.1736 76.1149 60.5904 76.1149 59.7659C76.1149 58.2979 74.9285 57.574 73.5007 57.574C72.0528 57.574 70.8864 58.318 70.8864 59.7659C70.8864 60.5904 71.2886 61.1736 71.9925 61.5557C71.2484 61.8976 70.625 62.521 70.625 63.4661C70.625 64.914 71.6707 65.8994 73.5007 65.8994C75.3307 65.8994 76.3764 64.8738 76.3764 63.4661C76.3563 62.521 75.753 61.9177 74.9888 61.5557ZM71.8919 59.8263C71.8919 58.9615 72.4751 58.4588 73.5007 58.4588C74.5263 58.4588 75.1095 58.9615 75.1095 59.8263C75.1095 60.691 74.3051 61.1334 73.5007 61.1334C72.6159 61.1334 71.8919 60.6306 71.8919 59.8263ZM73.4806 65.0347C72.455 65.0347 71.6707 64.5319 71.6707 63.4862C71.6707 62.5009 72.5354 62.0182 73.4806 62.0182C74.4257 62.0182 75.2904 62.5009 75.2904 63.4862C75.3106 64.5319 74.5062 65.0347 73.4806 65.0347Z" fill="#616161"/>
</g>
<defs>
<clipPath id="clip0_6760_10184">
<rect width="110.483" height="66" fill="white"/>
</clipPath>
</defs>
</svg>
