<svg width="16" height="16" viewBox="0 0 16 16" fill="none" xmlns="http://www.w3.org/2000/svg">
<circle cx="8" cy="8" r="8" fill="url(#paint0_linear_6758_1863)"/>
<path d="M13.3487 4.88846C13.3191 4.62303 13.1881 4.38519 12.9795 4.21839C12.5491 3.8743 11.9188 3.94452 11.5747 4.37469L6.84247 10.2739L4.70646 8.13788C4.31665 7.74807 3.68263 7.74828 3.29282 8.13788C3.10399 8.32671 3 8.57772 3 8.8446C3 9.11147 3.10399 9.36269 3.29282 9.55131L6.21874 12.4772C6.40757 12.6661 6.65858 12.7701 6.92546 12.7701C6.94399 12.7701 6.96273 12.7694 6.98085 12.7686C7.2644 12.7528 7.5288 12.6166 7.70589 12.3949L13.136 5.62339C13.3028 5.41479 13.3782 5.15389 13.3487 4.88846Z" fill="#242323"/>
<defs>
<linearGradient id="paint0_linear_6758_1863" x1="16" y1="9.75" x2="0.0726434" y2="10.8257" gradientUnits="userSpaceOnUse">
<stop stop-color="#C4EB80"/>
<stop offset="1" stop-color="#94D0C1"/>
</linearGradient>
</defs>
</svg>
