<svg width="80" height="17" viewBox="0 0 80 17" fill="none" xmlns="http://www.w3.org/2000/svg">
<g clip-path="url(#clip0_8705_7824)">
<path d="M48.1606 8.63363C48.1606 8.92233 48.0964 9.17893 47.9681 9.40348C47.8398 9.66008 47.6473 9.85255 47.4228 10.045C47.1983 10.2375 46.9096 10.3979 46.5888 10.4941C46.268 10.5903 45.9152 10.6545 45.5303 10.6545C45.1774 10.6545 44.8566 10.6224 44.6 10.5903C44.3113 10.5583 44.0547 10.4941 43.7981 10.4299C43.5415 10.3658 43.3169 10.2375 43.0924 10.1412C42.8679 10.013 42.6433 9.85255 42.3867 9.69217L43.5094 8.69778C43.8302 8.95441 44.151 9.11479 44.4717 9.21102C44.7925 9.30725 45.1133 9.37139 45.4661 9.37139C45.6265 9.37139 45.7548 9.33934 45.8831 9.30725C46.0114 9.27516 46.1397 9.21102 46.236 9.14688C46.3322 9.0827 46.3963 8.98647 46.4605 8.92233C46.5246 8.8261 46.5567 8.72986 46.5567 8.63363C46.5567 8.50531 46.5246 8.40908 46.4926 8.31285C46.4605 8.21662 46.3643 8.12039 46.236 8.05625C46.1076 7.96002 45.9473 7.89588 45.7227 7.79964C45.4982 7.70341 45.2416 7.60718 44.8887 7.51095C44.6 7.41472 44.3113 7.31849 44.0226 7.19017C43.734 7.06185 43.5094 6.90148 43.3169 6.74111C43.1245 6.5807 42.932 6.35617 42.8358 6.13163C42.6754 5.84294 42.6113 5.55425 42.6113 5.23348C42.6113 4.91271 42.6754 4.62402 42.8037 4.3674C42.932 4.11079 43.1245 3.88625 43.3811 3.69378C43.6056 3.5334 43.8943 3.37302 44.2151 3.27678C44.5359 3.18055 44.8887 3.1164 45.2416 3.1164C45.851 3.1164 46.3963 3.18055 46.8133 3.34094C47.2303 3.50132 47.6153 3.69378 47.936 3.98248L46.8454 4.97686C46.653 4.81648 46.4284 4.65609 46.1718 4.55986C45.9152 4.46363 45.6265 4.43156 45.3057 4.43156C45.1453 4.43156 45.017 4.46363 44.8887 4.49571C44.7283 4.52779 44.6321 4.59194 44.5359 4.65609C44.4396 4.72025 44.3755 4.81648 44.3113 4.91271C44.2472 5.00894 44.2151 5.10517 44.2151 5.2014C44.2151 5.32971 44.2472 5.42594 44.3113 5.52217C44.3434 5.6184 44.4396 5.68256 44.5679 5.77879C44.6963 5.87502 44.8566 5.93917 45.0812 6.0354C45.3057 6.13163 45.5623 6.22786 45.8831 6.32409C46.3001 6.4524 46.6209 6.5807 46.9096 6.74111C47.1983 6.90148 47.4228 7.06185 47.6153 7.25431C47.8077 7.44677 47.936 7.63924 48.0322 7.86379C48.1285 8.08834 48.1606 8.34494 48.1606 8.63363ZM57.1742 10.5583H55.6024V7.35054H52.6834V10.5583H51.1116V3.27678H52.6834V6.16371H55.6024V3.27678H57.1742V10.5583ZM65.867 10.5583H60.1253V3.27678H65.867V4.43156H61.665V6.16371H65.5463V7.2864H61.665V9.27516H65.867V10.5583ZM70.5182 10.5583H68.9464V3.27678H70.5182V10.5583ZM79.4034 3.27678V10.7507L75.009 6.93357V10.4941H73.4693V3.05225L77.8637 6.86939V3.27678H79.4034Z" fill="url(#paint0_linear_8705_7824)"/>
</g>
<g clip-path="url(#clip1_8705_7824)">
<path d="M8.87219 0.532036V10.2708H7.97717V2.31723L4.77446 8.53881H4.14553L0.937986 2.33175V10.2708H0.0429688V0.532036H0.976689L4.46484 7.25676L7.95298 0.532036H8.87219ZM18.3497 10.4111L16.729 8.67911C16.1436 9.59832 15.3453 10.2708 14.0343 10.2708C12.3458 10.2708 11.1025 9.10001 11.1025 7.66315C11.1025 6.46334 11.8427 5.72313 13.265 4.9152C12.4571 4.10727 12.0072 3.43479 12.0072 2.64137C12.0072 1.48511 12.9844 0.561064 14.1697 0.561064C15.4276 0.561064 16.3613 1.48027 16.3613 2.64137C16.3613 3.75894 15.4808 4.50881 14.6051 5.08453L16.6129 7.27611L17.7982 5.35061L18.5093 5.7957L17.1983 7.92923L18.998 9.84021L18.3497 10.4111ZM13.8262 5.52478C12.5587 6.22144 11.9975 6.78264 11.9975 7.64379C11.9975 8.63557 12.8925 9.45802 14.0343 9.45802C15.0647 9.45802 15.5969 8.9839 16.1678 8.06469L13.8262 5.52478ZM12.8925 2.63654C12.8925 3.17838 13.2554 3.64283 14.0488 4.4943C14.9825 3.94761 15.5002 3.37674 15.5002 2.63654C15.5002 1.91085 15.0115 1.33997 14.1746 1.33997C13.3957 1.33997 12.8925 1.95439 12.8925 2.63654ZM26.55 2.61235L25.7421 2.90746C25.4227 1.88666 24.5132 1.2287 23.2844 1.2287C21.9443 1.2287 21.0686 1.89633 21.0686 3.02841C21.0686 5.45705 26.6226 4.17016 26.6226 7.59058C26.6226 9.22096 25.3115 10.3675 23.357 10.3675C21.5427 10.3675 20.4542 9.50156 19.7043 8.12275L20.459 7.66315C20.9622 8.72265 21.8814 9.5451 23.2795 9.5451C24.8954 9.5451 25.7372 8.8049 25.7372 7.57606C25.7372 5.13291 20.1833 6.33271 20.1833 3.01389C20.1833 1.04486 21.954 0.40625 23.265 0.40625C24.7358 0.40625 26.0759 1.07388 26.55 2.61235Z" fill="#616161"/>
<path d="M6.43796 15.3459H7.3862V15.0943H6.43796V14.4654H7.45393V14.209H6.17188V16.2458H7.51198V15.9942H6.43796V15.3459Z" fill="#616161"/>
<path d="M8.87696 15.0845L8.86728 15.0797C8.577 14.9974 8.41735 14.9394 8.41735 14.7507C8.41735 14.562 8.577 14.4411 8.82374 14.4411C9.02693 14.4411 9.18175 14.5233 9.24948 14.6781L9.2785 14.741L9.49621 14.6152L9.47686 14.5669C9.33172 14.2185 8.94952 14.1943 8.83341 14.1943C8.58184 14.1943 8.16094 14.3153 8.16094 14.7604C8.16094 15.1522 8.50927 15.2538 8.8189 15.3458C9.12369 15.4328 9.29302 15.4957 9.29302 15.6941C9.29302 15.9021 9.11401 16.0376 8.83341 16.0376C8.577 16.0376 8.38832 15.9263 8.28673 15.7134L8.2577 15.6506L8.03516 15.7812L8.05935 15.8344C8.20448 16.1247 8.47541 16.2892 8.82374 16.2892C9.24948 16.2892 9.54943 16.0376 9.54943 15.6796C9.54459 15.278 9.17691 15.1716 8.87696 15.0845Z" fill="#616161"/>
<path d="M10.0098 14.4654H10.629V16.2458H10.8951V14.4654H11.5144V14.209H10.0098V14.4654Z" fill="#616161"/>
<path d="M12.2093 15.9312C12.1174 15.9312 12.0352 16.0086 12.0352 16.1005C12.0352 16.1924 12.1126 16.2746 12.2093 16.2746C12.3012 16.2746 12.3835 16.1972 12.3835 16.1005C12.3786 16.0086 12.3012 15.9312 12.2093 15.9312Z" fill="#616161"/>
<path d="M13.7305 14.5474H14.0353V16.2455H14.3013V14.291H13.7353L13.7305 14.5474Z" fill="#616161"/>
<path d="M20.1597 14.291H20.0097L19.0566 15.6118V15.7908H20.0484V16.2504H20.3048V15.7908H20.5564V15.5682L20.3048 15.544V14.291H20.1694M19.4146 15.5344L20.0533 14.6539V15.5344H19.4146Z" fill="#616161"/>
<path d="M16.1397 15.2152C16.309 15.1233 16.4106 14.983 16.4106 14.7847C16.4106 14.4315 16.1252 14.2573 15.7817 14.2573C15.4333 14.2573 15.1527 14.4363 15.1527 14.7847C15.1527 14.983 15.2495 15.1233 15.4188 15.2152C15.2398 15.2975 15.0898 15.4475 15.0898 15.6748C15.0898 16.0232 15.3414 16.2602 15.7817 16.2602C16.2219 16.2602 16.4735 16.0135 16.4735 15.6748C16.4687 15.4475 16.3187 15.3023 16.1397 15.2152ZM15.3946 14.7992C15.3946 14.5911 15.5301 14.4702 15.7817 14.4702C16.0284 14.4702 16.1687 14.5911 16.1687 14.7992C16.1687 15.0072 15.9752 15.1136 15.7817 15.1136C15.5688 15.1136 15.3946 14.9927 15.3946 14.7992ZM15.7768 16.0522C15.5301 16.0522 15.3414 15.9312 15.3414 15.6797C15.3414 15.4426 15.5494 15.3265 15.7768 15.3265C16.0042 15.3265 16.2122 15.4426 16.2122 15.6797C16.2122 15.9312 16.0236 16.0522 15.7768 16.0522Z" fill="#616161"/>
<path d="M18.083 15.2152C18.2524 15.1233 18.354 14.983 18.354 14.7847C18.354 14.4315 18.0685 14.2573 17.725 14.2573C17.3767 14.2573 17.0961 14.4363 17.0961 14.7847C17.0961 14.983 17.1929 15.1233 17.3622 15.2152C17.1832 15.2975 17.0332 15.4475 17.0332 15.6748C17.0332 16.0232 17.2848 16.2602 17.725 16.2602C18.1653 16.2602 18.4168 16.0135 18.4168 15.6748C18.412 15.4475 18.2669 15.3023 18.083 15.2152ZM17.338 14.7992C17.338 14.5911 17.4783 14.4702 17.725 14.4702C17.9718 14.4702 18.1121 14.5911 18.1121 14.7992C18.1121 15.0072 17.9185 15.1136 17.725 15.1136C17.5122 15.1136 17.338 14.9927 17.338 14.7992ZM17.7202 16.0522C17.4735 16.0522 17.2848 15.9312 17.2848 15.6797C17.2848 15.4426 17.4928 15.3265 17.7202 15.3265C17.9476 15.3265 18.1556 15.4426 18.1556 15.6797C18.1604 15.9312 17.9669 16.0522 17.7202 16.0522Z" fill="#616161"/>
</g>
<defs>
<linearGradient id="paint0_linear_8705_7824" x1="42.3867" y1="6.90148" x2="79.4034" y2="6.90148" gradientUnits="userSpaceOnUse">
<stop offset="0.573475" stop-color="#616161"/>
<stop offset="1" stop-color="#616161" stop-opacity="0.1"/>
</linearGradient>
<clipPath id="clip0_8705_7824">
<rect width="37.0926" height="7.69847" fill="white" transform="translate(42.3867 3.05225)"/>
</clipPath>
<clipPath id="clip1_8705_7824">
<rect width="26.5796" height="15.8781" fill="white" transform="translate(0.0429688 0.40625)"/>
</clipPath>
</defs>
</svg>
