<svg width="155" height="32" viewBox="0 0 155 32" fill="none" xmlns="http://www.w3.org/2000/svg">
<path d="M24 23.2C24 24.4 23.7334 25.4666 23.2 26.4C22.6666 27.4666 21.8666 28.2666 20.9334 29.0666C20 29.8666 18.8 30.5334 17.4666 30.9334C16.1334 31.3334 14.6666 31.6 13.0667 31.6C11.6 31.6 10.2667 31.4666 9.2 31.3334C8 31.2 6.93334 30.9334 5.86666 30.6666C4.8 30.4 3.86666 29.8666 2.93334 29.4666C2 28.9334 1.06667 28.2666 0 27.6L4.66666 23.4666C6 24.5334 7.33334 25.2 8.66666 25.6C10 26 11.3333 26.2666 12.8 26.2666C13.4667 26.2666 14 26.1334 14.5333 26C15.0666 25.8666 15.6 25.6 16 25.3334C16.4 25.0666 16.6666 24.6666 16.9334 24.4C17.2 24 17.3334 23.6 17.3334 23.2C17.3334 22.6666 17.2 22.2666 17.0666 21.8666C16.9334 21.4666 16.5334 21.0666 16 20.8C15.4666 20.4 14.8 20.1334 13.8667 19.7334C12.9333 19.3334 11.8667 18.9334 10.4 18.5334C9.2 18.1334 8 17.7334 6.8 17.2C5.6 16.6666 4.66666 16 3.86666 15.3334C3.06666 14.6666 2.26666 13.7333 1.86666 12.8C1.2 11.6 0.933334 10.4 0.933334 9.06666C0.933334 7.73334 1.2 6.53334 1.73334 5.46666C2.26666 4.4 3.06666 3.46666 4.13334 2.66666C5.06666 2 6.26666 1.33333 7.6 0.933334C8.93334 0.533334 10.4 0.266666 11.8667 0.266666C14.4 0.266666 16.6666 0.533334 18.4 1.2C20.1334 1.86666 21.7334 2.66666 23.0666 3.86666L18.5334 8C17.7334 7.33334 16.8 6.66666 15.7334 6.26666C14.6666 5.86666 13.4667 5.73334 12.1333 5.73334C11.4667 5.73334 10.9333 5.86666 10.4 6C9.73334 6.13334 9.33334 6.4 8.93334 6.66666C8.53334 6.93334 8.26666 7.33334 8 7.73334C7.73334 8.13334 7.6 8.53334 7.6 8.93334C7.6 9.46666 7.73334 9.86666 8 10.2667C8.13334 10.6667 8.53334 10.9333 9.06666 11.3333C9.6 11.7333 10.2667 12 11.2 12.4C12.1333 12.8 13.2 13.2 14.5333 13.6C16.2666 14.1333 17.6 14.6666 18.8 15.3334C20 16 20.9334 16.6666 21.7334 17.4666C22.5334 18.2666 23.0666 19.0666 23.4666 20C23.8666 20.9334 24 22 24 23.2ZM61.4666 31.2H54.9334V17.8666H42.8V31.2H36.2666V0.933334H42.8V12.9333H54.9334V0.933334H61.4666V31.2ZM97.6 31.2H73.7334V0.933334H97.6V5.73334H80.1334V12.9333H96.2666V17.6H80.1334V25.8666H97.6V31.2ZM116.933 31.2H110.4V0.933334H116.933V31.2ZM153.866 0.933334V32L135.6 16.1334V30.9334H129.2V0L147.466 15.8666V0.933334H153.866Z" fill="url(#paint0_linear_6760_10182)"/>
<defs>
<linearGradient id="paint0_linear_6760_10182" x1="0" y1="16" x2="153.866" y2="16" gradientUnits="userSpaceOnUse">
<stop offset="0.573475" stop-color="#616161"/>
<stop offset="1" stop-color="#616161" stop-opacity="0.1"/>
</linearGradient>
</defs>
</svg>
