<svg width="1708" height="882" viewBox="0 0 1708 882" fill="none" xmlns="http://www.w3.org/2000/svg">
<path d="M1678 580L1682.24 605.758L1708 610L1682.24 614.243L1678 640L1673.76 614.243L1648 610L1673.76 605.758L1678 580Z" fill="#242323"/>
<path d="M1630 64.0002L1632.83 81.1718L1650 84.0002L1632.83 86.8287L1630 104L1627.17 86.8287L1610 84.0002L1627.17 81.1718L1630 64.0002Z" fill="#242323"/>
<path d="M893 0.000244141L895.263 13.7375L909 16.0002L895.263 18.263L893 32.0002L890.737 18.263L877 16.0002L890.737 13.7375L893 0.000244141Z" fill="#242323"/>
<path d="M28.414 667.03L25.6663 682.007L38.9713 689.414L23.9937 686.666L16.5873 699.971L19.3351 684.993L6.03002 677.587L21.0076 680.335L28.414 667.03Z" fill="#242323"/>
<path d="M654.736 859.74L652.834 868.215L660.252 872.735L651.777 870.833L647.257 878.251L649.159 869.776L641.741 865.256L650.217 867.158L654.736 859.74Z" fill="#242323"/>
</svg>
