<svg width="112" height="66" viewBox="0 0 112 66" fill="none" xmlns="http://www.w3.org/2000/svg">
<g clip-path="url(#clip0_6760_10153)">
<path d="M82.0164 24.7724C91.0471 20.7806 96.944 14.7858 97.2653 8.13541C97.2653 8.13541 94.8812 6.28996 87.1833 3.44405C80.4236 0.944916 75.2666 0.372944 75.2666 0.372944L75.2904 15.1904C75.2904 17.4045 74.4058 19.6645 72.7357 21.6654C67.6263 20.4258 61.9793 19.7303 56.0566 19.7283H56.0527C50.1261 19.7303 44.4732 20.4278 39.3578 21.6694C37.6877 19.6685 36.8011 17.4065 36.8011 15.1904L36.8229 0.372944C36.8229 0.372944 31.6698 0.944916 24.9062 3.44405C17.2083 6.28996 14.8281 8.13541 14.8281 8.13541C15.1475 14.7878 21.0463 20.7845 30.087 24.7764C21.0543 28.7682 15.1574 34.7629 14.838 41.4114C14.838 41.4114 17.2202 43.2588 24.9181 46.1027C31.6797 48.6019 36.8348 49.1738 36.8348 49.1738L36.811 34.3564C36.811 32.1422 37.6956 29.8803 39.3677 27.8814C44.4771 29.123 50.1221 29.8165 56.0447 29.8165C61.9734 29.8165 67.6302 29.121 72.7436 27.8754C74.4137 29.8763 75.2983 32.1422 75.2983 34.3564L75.2785 49.1738C75.2785 49.1738 80.4336 48.6019 87.1952 46.1027C94.8931 43.2588 97.2753 41.4114 97.2753 41.4114C96.9539 34.759 91.0551 28.7622 82.0164 24.7724ZM56.0487 28.1066H56.0428L55.8742 28.1026C50.5267 28.1026 46.167 26.7872 42.9697 24.7764C46.167 22.7615 50.5287 21.4442 55.8861 21.4442L56.0507 21.4422H56.0586L56.2272 21.4442C61.5767 21.4442 65.9344 22.7595 69.1317 24.7704C65.9344 26.7833 61.5727 28.1026 56.2173 28.1026" fill="#616161"/>
<path d="M3.00722 65.5906C0.416805 65.5906 0.371186 63.6056 0.371186 62.8403V59.2291C0.371186 59.0099 0.353334 58.719 0.815484 58.719H2.15433C2.58871 58.719 2.56094 59.0299 2.56094 59.2291V62.8403C2.56094 63.0974 2.60855 63.787 3.5507 63.787H5.79599C6.72029 63.787 6.77384 63.0974 6.77384 62.8403V59.2291C6.77384 59.0299 6.74806 58.719 7.18046 58.719H8.52922C9.01914 58.719 8.9755 59.0299 8.9755 59.2291V62.8403C8.9755 63.6056 8.92988 65.5906 6.32955 65.5906" fill="#616161"/>
<path d="M15.4139 65.1545C14.4995 63.9169 13.1944 62.3584 11.8635 60.7122V65.1086C11.8635 65.3 11.9111 65.5909 11.4569 65.5909H10.2073C9.75505 65.5909 9.8086 65.3 9.8086 65.1086V59.2295C9.8086 59.0302 9.78877 58.7193 10.2073 58.7193H12.643C13.3313 58.7193 14.3111 60.1124 14.9537 61.0311C15.4496 61.7326 16.366 62.7869 16.9809 63.5781V59.2295C16.9809 59.0302 16.9531 58.7193 17.4073 58.7193H18.764C19.2004 58.7193 19.1726 59.0302 19.1726 59.2295V65.5909H16.6734C16.1379 65.5909 15.9018 65.6268 15.4139 65.1545Z" fill="#616161"/>
<path d="M25.7105 63.7832C26.8054 63.7832 26.7261 62.7269 26.7261 62.2447C26.7261 60.6244 26.2718 60.5606 25.5479 60.5606H22.1065V63.7832H25.7105ZM19.9941 65.5928V58.7311H26.0299C26.3988 58.7311 28.8702 58.6873 28.8702 61.296C28.8702 63.9645 29.1598 65.5928 26.0834 65.5928H22.8305L22.1244 64.1559V65.5928" fill="#616161"/>
<path d="M31.2345 58.7751H36.7942C37.2662 58.7751 37.2028 59.084 37.2028 59.6579C37.2028 60.192 37.2742 60.493 36.7942 60.493H32.4008C32.2837 60.493 31.8871 60.4292 31.8871 60.8477C31.8871 61.2662 31.8057 61.4316 32.248 61.4316H36.1337C36.1337 61.4316 36.695 62.5058 36.7585 62.6872C36.8497 62.8506 36.8398 63.006 36.4967 63.006H32.4742L31.8494 61.7864V63.588C31.8494 64.0065 32.2223 63.9248 32.3294 63.9248H36.8933C37.3476 63.9248 37.3099 64.2417 37.3099 64.7598C37.3099 65.3178 37.3476 65.6248 36.8933 65.6248H31.1155C30.6355 65.6248 29.6953 65.4793 29.6953 63.9706V60.1841C29.6953 59.7934 29.9036 58.7751 31.2345 58.7751Z" fill="#616161"/>
<path d="M43.5456 60.5414H40.8382C40.3879 60.5414 40.4038 60.6969 40.4038 60.8344V62.062H43.1926C44.5433 62.062 44.5433 61.7232 44.5433 61.3685C44.5433 60.659 44.4898 60.5414 43.5456 60.5414ZM38.702 58.7299H44.7873C45.6025 58.7299 46.7866 58.7219 46.7866 60.932C46.7866 62.3789 46.4812 62.4507 45.8286 62.8971C46.9255 63.0884 46.7807 64.4974 46.7807 65.2268C46.7807 65.5995 46.6458 65.5915 46.5347 65.5915H44.7516C44.3787 65.5915 44.4699 64.9996 44.4699 64.6907C44.4699 63.8437 43.9998 63.8816 43.8174 63.8816H41.1912C40.9393 63.4431 40.4494 62.4606 40.4494 62.4606V65.3085C40.4494 65.5556 40.2035 65.5915 40.1142 65.5915H38.3231C38.4203 65.5915 38.1387 65.6094 38.1387 65.3623V59.3218C38.1387 58.8933 38.4382 58.7299 38.702 58.7299Z" fill="#616161"/>
<path d="M56.5418 60.6755L55.4191 62.7322L55.5183 62.8319H57.6108L57.7199 62.7322C57.6465 62.5768 56.7421 60.8489 56.6508 60.6656L56.5418 60.6755ZM57.2657 58.7763C57.71 58.7763 58.1424 58.9756 58.6145 59.8943C58.9338 60.548 61.1434 64.5598 61.6036 65.3988V65.626H59.3027L58.6403 64.4242H55.8436C55.8436 64.4242 55.3735 63.3421 55.2386 63.0431C55.066 63.3241 54.1417 65.0899 53.8224 65.626H51.5156V65.4805C51.9857 64.5897 55.2009 58.7763 55.2009 58.7763" fill="#616161"/>
<path d="M67.6374 60.5414H64.9299C64.4777 60.5414 64.4956 60.6969 64.4956 60.8344V62.062H67.2843C68.6351 62.062 68.6351 61.7232 68.6351 61.3685C68.6351 60.659 68.5815 60.5414 67.6374 60.5414ZM62.7937 58.7299H68.879C69.6943 58.7299 70.8804 58.7219 70.8804 60.932C70.8804 62.3789 70.5749 62.4507 69.9204 62.8971C71.0153 63.0884 70.8705 64.4974 70.8705 65.2268C70.8705 65.5995 70.7356 65.5915 70.6265 65.5915H68.8433C68.4705 65.5915 68.5617 64.9996 68.5617 64.6907C68.5617 63.8437 68.0916 63.8816 67.9091 63.8816H65.283C65.0291 63.4431 64.5392 62.4606 64.5392 62.4606V65.3085C64.5392 65.5556 64.2972 65.5915 64.206 65.5915H62.4129C62.5121 65.5915 62.2324 65.6094 62.2324 65.3623V59.3218C62.2324 58.8933 62.5319 58.7299 62.7937 58.7299Z" fill="#616161"/>
<path d="M76.1965 65.5906C75.7423 64.7356 74.4828 62.378 73.6318 60.8335V65.1083C73.6318 65.2996 73.6576 65.5906 73.2272 65.5906H71.9935C71.5313 65.5906 71.567 65.2996 71.567 65.1083V59.2291C71.567 59.0299 71.5413 58.7289 71.9935 58.7289H74.1218C74.4391 58.7289 74.8894 58.6552 75.3991 59.6756C75.7799 60.4927 76.5872 62.1886 77.1386 63.0875C77.7079 62.1886 78.533 60.4927 78.9138 59.6756C79.4117 58.6552 79.854 58.7289 80.2071 58.7289H82.3254C82.7618 58.7289 82.7162 59.0299 82.7162 59.2291V65.1083C82.7162 65.2996 82.7776 65.5906 82.3254 65.5906H81.0857C80.6335 65.5906 80.6692 65.2996 80.6692 65.1083V60.8335C79.8104 62.378 78.5588 64.7356 78.0867 65.5906" fill="#616161"/>
<path d="M89.5072 63.8429C90.5326 63.8429 90.495 62.7807 90.495 62.0692C90.495 61.4315 90.6398 60.431 89.3088 60.431H87.0516C85.7307 60.431 85.8854 61.4315 85.8854 62.0692C85.8854 62.7807 85.8219 63.8429 86.8454 63.8429H89.5072ZM85.451 65.6086C83.4318 65.6086 83.5211 63.4324 83.5211 62.0254C83.5211 60.7319 83.3763 58.7131 85.9032 58.6932H90.3879C92.9227 58.6932 92.7581 60.7399 92.7581 62.0254C92.7581 63.4324 92.8593 65.6086 90.8103 65.6086" fill="#616161"/>
<path d="M96.1342 65.5906C93.5418 65.5906 93.4981 63.6056 93.4981 62.8403V59.2291C93.4981 59.0099 93.4803 58.719 93.9424 58.719H95.2833C95.7157 58.719 95.6899 59.0299 95.6899 59.2291V62.8403C95.6899 63.0974 95.7355 63.787 96.6776 63.787H98.9229C99.8472 63.787 99.9008 63.0974 99.9008 62.8403V59.2291C99.9008 59.0299 99.873 58.719 100.307 58.719H101.656C102.146 58.719 102.102 59.0299 102.102 59.2291V62.8403C102.102 63.6056 102.057 65.5906 99.4565 65.5906" fill="#616161"/>
<path d="M108.383 60.5414H105.676C105.224 60.5414 105.242 60.6969 105.242 60.8344V62.062H108.03C109.381 62.062 109.381 61.7232 109.381 61.3685C109.381 60.659 109.328 60.5414 108.383 60.5414ZM103.538 58.7299H109.625C110.44 58.7299 111.628 58.7219 111.628 60.932C111.628 62.3789 111.319 62.4507 110.666 62.8971C111.763 63.0884 111.619 64.4974 111.619 65.2268C111.619 65.5995 111.484 65.5915 111.373 65.5915H109.589C109.219 65.5915 109.308 64.9996 109.308 64.6907C109.308 63.8437 108.838 63.8816 108.657 63.8816H106.029C105.777 63.4431 105.287 62.4606 105.287 62.4606V65.3085C105.287 65.5556 105.041 65.5915 104.952 65.5915H103.161C103.258 65.5915 102.979 65.6094 102.979 65.3623V59.3218C102.979 58.8933 103.278 58.7299 103.538 58.7299Z" fill="#616161"/>
</g>
<defs>
<clipPath id="clip0_6760_10153">
<rect width="112" height="66" fill="white"/>
</clipPath>
</defs>
</svg>
